<svg width="118" height="18" viewBox="0 0 118 18" fill="none" xmlns="http://www.w3.org/2000/svg">
<path d="M118 9L103 0.339746V17.6603L118 9ZM0 10.5C0.0867306 10.5 0.173369 10.5 0.259917 10.5C0.346464 10.5 0.43292 10.5 0.519284 10.5C0.605649 10.5 0.691923 10.5 0.778105 10.5C0.864288 10.5 0.95038 10.5 1.03638 10.5C1.12238 10.5 1.20829 10.5 1.29411 10.5C1.37993 10.5 1.46567 10.5 1.55131 10.5C1.63695 10.5 1.7225 10.5 1.80796 10.5C1.89342 10.5 1.97879 10.5 2.06407 10.5C2.14936 10.5 2.23455 10.5 2.31965 10.5C2.40476 10.5 2.48977 10.5 2.5747 10.5C2.65963 10.5 2.74447 10.5 2.82922 10.5C2.91397 10.5 2.99863 10.5 3.0832 10.5C3.16778 10.5 3.25226 10.5 3.33666 10.5C3.42106 10.5 3.50537 10.5 3.5896 10.5C3.67382 10.5 3.75796 10.5 3.84201 10.5C3.92606 10.5 4.01002 10.5 4.09389 10.5C4.17777 10.5 4.26156 10.5 4.34526 10.5C4.42897 10.5 4.51258 10.5 4.59611 10.5C4.67964 10.5 4.76309 10.5 4.84645 10.5C4.92981 10.5 5.01308 10.5 5.09627 10.5C5.17946 10.5 5.26256 10.5 5.34558 10.5C5.4286 10.5 5.51153 10.5 5.59438 10.5C5.67723 10.5 5.75999 10.5 5.84267 10.5C5.92535 10.5 6.00794 10.5 6.09045 10.5C6.17296 10.5 6.25539 10.5 6.33773 10.5C6.42008 10.5 6.50234 10.5 6.58451 10.5C6.66669 10.5 6.74878 10.5 6.83079 10.5C6.9128 10.5 6.99473 10.5 7.07657 10.5C7.15842 10.5 7.24018 10.5 7.32186 10.5C7.40353 10.5 7.48513 10.5 7.56664 10.5C7.64816 10.5 7.72959 10.5 7.81094 10.5C7.89229 10.5 7.97356 10.5 8.05475 10.5C8.13593 10.5 8.21704 10.5 8.29807 10.5C8.37909 10.5 8.46003 10.5 8.5409 10.5C8.62176 10.5 8.70254 10.5 8.78324 10.5C8.86395 10.5 8.94457 10.5 9.02511 10.5C9.10565 10.5 9.18611 10.5 9.26649 10.5C9.34687 10.5 9.42717 10.5 9.50739 10.5C9.58762 10.5 9.66776 10.5 9.74782 10.5C9.82788 10.5 9.90787 10.5 9.98777 10.5C10.0677 10.5 10.1475 10.5 10.2273 10.5C10.307 10.5 10.3867 10.5 10.4663 10.5C10.5458 10.5 10.6254 10.5 10.7048 10.5C10.7842 10.5 10.8636 10.5 10.9429 10.5C11.0221 10.5 11.1014 10.5 11.1805 10.5C11.2596 10.5 11.3386 10.5 11.4176 10.5C11.4966 10.5 11.5755 10.5 11.6543 10.5C11.7331 10.5 11.8119 10.5 11.8905 10.5C11.9692 10.5 12.0478 10.5 12.1263 10.5C12.2048 10.5 12.2832 10.5 12.3616 10.5C12.44 10.5 12.5182 10.5 12.5964 10.5C12.6747 10.5 12.7528 10.5 12.8309 10.5C12.9089 10.5 12.9869 10.5 13.0648 10.5C13.1427 10.5 13.2206 10.5 13.2983 10.5C13.3761 10.5 13.4538 10.5 13.5314 10.5C13.609 10.5 13.6865 10.5 13.764 10.5C13.8415 10.5 13.9188 10.5 13.9962 10.5C14.0735 10.5 14.1507 10.5 14.2279 10.5C14.3051 10.5 14.3822 10.5 14.4592 10.5C14.5362 10.5 14.6132 10.5 14.6901 10.5C14.7669 10.5 14.8437 10.5 14.9205 10.5C14.9972 10.5 15.0739 10.5 15.1505 10.5C15.2271 10.5 15.3036 10.5 15.38 10.5C15.4565 10.5 15.5329 10.5 15.6092 10.5C15.6855 10.5 15.7617 10.5 15.8379 10.5C15.914 10.5 15.9901 10.5 16.0662 10.5C16.1422 10.5 16.2181 10.5 16.294 10.5C16.3699 10.5 16.4457 10.5 16.5215 10.5C16.5972 10.5 16.6729 10.5 16.7485 10.5C16.8241 10.5 16.8996 10.5 16.9751 10.5C17.0506 10.5 17.126 10.5 17.2013 10.5C17.2766 10.5 17.3519 10.5 17.4271 10.5C17.5023 10.5 17.5774 10.5 17.6524 10.5C17.7275 10.5 17.8025 10.5 17.8774 10.5C17.9523 10.5 18.0272 10.5 18.1019 10.5C18.1767 10.5 18.2514 10.5 18.3261 10.5C18.4007 10.5 18.4753 10.5 18.5498 10.5C18.6243 10.5 18.6988 10.5 18.7732 10.5C18.8476 10.5 18.9219 10.5 18.9961 10.5C19.0704 10.5 19.1445 10.5 19.2187 10.5C19.2928 10.5 19.3668 10.5 19.4408 10.5C19.5148 10.5 19.5887 10.5 19.6626 10.5C19.7364 10.5 19.8102 10.5 19.8839 10.5C19.9577 10.5 20.0313 10.5 20.1049 10.5C20.1785 10.5 20.252 10.5 20.3255 10.5C20.399 10.5 20.4724 10.5 20.5457 10.5C20.619 10.5 20.6923 10.5 20.7655 10.5C20.8387 10.5 20.9119 10.5 20.985 10.5C21.058 10.5 21.1311 10.5 21.204 10.5C21.277 10.5 21.3499 10.5 21.4227 10.5C21.4955 10.5 21.5683 10.5 21.641 10.5C21.7137 10.5 21.7863 10.5 21.8589 10.5C21.9315 10.5 22.004 10.5 22.0765 10.5C22.1489 10.5 22.2213 10.5 22.2937 10.5C22.366 10.5 22.4383 10.5 22.5105 10.5C22.5827 10.5 22.6549 10.5 22.7269 10.5C22.799 10.5 22.8711 10.5 22.943 10.5C23.015 10.5 23.0869 10.5 23.1588 10.5C23.2306 10.5 23.3024 10.5 23.3741 10.5C23.4459 10.5 23.5175 10.5 23.5891 10.5C23.6607 10.5 23.7323 10.5 23.8038 10.5C23.8753 10.5 23.9467 10.5 24.0181 10.5C24.0895 10.5 24.1608 10.5 24.232 10.5C24.3033 10.5 24.3745 10.5 24.4456 10.5C24.5168 10.5 24.5879 10.5 24.6589 10.5C24.7299 10.5 24.8009 10.5 24.8718 10.5C24.9427 10.5 25.0135 10.5 25.0843 10.5C25.1551 10.5 25.2259 10.5 25.2965 10.5C25.3672 10.5 25.4378 10.5 25.5084 10.5C25.579 10.5 25.6495 10.5 25.7199 10.5C25.7904 10.5 25.8608 10.5 25.9311 10.5C26.0015 10.5 26.0718 10.5 26.142 10.5C26.2122 10.5 26.2824 10.5 26.3525 10.5C26.4226 10.5 26.4927 10.5 26.5627 10.5C26.6327 10.5 26.7027 10.5 26.7726 10.5C26.8425 10.5 26.9123 10.5 26.9821 10.5C27.0519 10.5 27.1216 10.5 27.1913 10.5C27.261 10.5 27.3306 10.5 27.4002 10.5C27.4698 10.5 27.5393 10.5 27.6088 10.5C27.6783 10.5 27.7477 10.5 27.817 10.5C27.8864 10.5 27.9557 10.5 28.025 10.5C28.0942 10.5 28.1634 10.5 28.2326 10.5C28.3017 10.5 28.3708 10.5 28.4399 10.5C28.5089 10.5 28.5779 10.5 28.6469 10.5C28.7158 10.5 28.7847 10.5 28.8535 10.5C28.9224 10.5 28.9912 10.5 29.0599 10.5C29.1287 10.5 29.1973 10.5 29.266 10.5C29.3346 10.5 29.4032 10.5 29.4717 10.5C29.5403 10.5 29.6088 10.5 29.6772 10.5C29.7456 10.5 29.814 10.5 29.8824 10.5C29.9507 10.5 30.019 10.5 30.0872 10.5C30.1555 10.5 30.2237 10.5 30.2918 10.5C30.3599 10.5 30.428 10.5 30.4961 10.5C30.5641 10.5 30.6321 10.5 30.7 10.5C30.768 10.5 30.8359 10.5 30.9037 10.5C30.9716 10.5 31.0394 10.5 31.1071 10.5C31.1749 10.5 31.2426 10.5 31.3102 10.5C31.3779 10.5 31.4455 10.5 31.5131 10.5C31.5806 10.5 31.6482 10.5 31.7156 10.5C31.7831 10.5 31.8505 10.5 31.9179 10.5C31.9853 10.5 32.0526 10.5 32.1199 10.5C32.1872 10.5 32.2544 10.5 32.3216 10.5C32.3888 10.5 32.4559 10.5 32.523 10.5C32.5901 10.5 32.6572 10.5 32.7242 10.5C32.7912 10.5 32.8582 10.5 32.9251 10.5C32.992 10.5 33.0589 10.5 33.1257 10.5C33.1925 10.5 33.2593 10.5 33.326 10.5C33.3928 10.5 33.4595 10.5 33.5261 10.5C33.5928 10.5 33.6594 10.5 33.726 10.5C33.7925 10.5 33.8591 10.5 33.9255 10.5C33.992 10.5 34.0584 10.5 34.1248 10.5C34.1912 10.5 34.2576 10.5 34.3239 10.5C34.3902 10.5 34.4565 10.5 34.5227 10.5C34.5889 10.5 34.6551 10.5 34.7212 10.5C34.7874 10.5 34.8535 10.5 34.9195 10.5C34.9856 10.5 35.0516 10.5 35.1175 10.5C35.1835 10.5 35.2495 10.5 35.3153 10.5C35.3812 10.5 35.4471 10.5 35.5129 10.5C35.5787 10.5 35.6445 10.5 35.7102 10.5C35.7759 10.5 35.8416 10.5 35.9072 10.5C35.9729 10.5 36.0385 10.5 36.1041 10.5C36.1696 10.5 36.2352 10.5 36.3006 10.5C36.3661 10.5 36.4316 10.5 36.497 10.5C36.5624 10.5 36.6278 10.5 36.6931 10.5C36.7584 10.5 36.8237 10.5 36.889 10.5C36.9542 10.5 37.0195 10.5 37.0846 10.5C37.1498 10.5 37.215 10.5 37.2801 10.5C37.3452 10.5 37.4102 10.5 37.4753 10.5C37.5403 10.5 37.6053 10.5 37.6702 10.5C37.7352 10.5 37.8001 10.5 37.865 10.5C37.9299 10.5 37.9947 10.5 38.0595 10.5C38.1243 10.5 38.1891 10.5 38.2538 10.5C38.3185 10.5 38.3832 10.5 38.4479 10.5C38.5126 10.5 38.5772 10.5 38.6418 10.5C38.7064 10.5 38.7709 10.5 38.8354 10.5C38.9 10.5 38.9645 10.5 39.0289 10.5C39.0934 10.5 39.1578 10.5 39.2221 10.5C39.2865 10.5 39.3509 10.5 39.4152 10.5C39.4795 10.5 39.5438 10.5 39.608 10.5C39.6723 10.5 39.7365 10.5 39.8007 10.5C39.8648 10.5 39.929 10.5 39.9931 10.5C40.0572 10.5 40.1213 10.5 40.1853 10.5C40.2494 10.5 40.3134 10.5 40.3774 10.5C40.4413 10.5 40.5053 10.5 40.5692 10.5C40.6331 10.5 40.697 10.5 40.7608 10.5C40.8247 10.5 40.8885 10.5 40.9523 10.5C41.0161 10.5 41.0798 10.5 41.1436 10.5C41.2073 10.5 41.271 10.5 41.3346 10.5C41.3983 10.5 41.4619 10.5 41.5255 10.5C41.5891 10.5 41.6527 10.5 41.7162 10.5C41.7798 10.5 41.8433 10.5 41.9068 10.5C41.9702 10.5 42.0337 10.5 42.0971 10.5C42.1605 10.5 42.2239 10.5 42.2873 10.5C42.3506 10.5 42.414 10.5 42.4773 10.5C42.5406 10.5 42.6039 10.5 42.6671 10.5C42.7303 10.5 42.7936 10.5 42.8567 10.5C42.9199 10.5 42.9831 10.5 43.0462 10.5C43.1094 10.5 43.1725 10.5 43.2355 10.5C43.2986 10.5 43.3617 10.5 43.4247 10.5C43.4877 10.5 43.5507 10.5 43.6137 10.5C43.6766 10.5 43.7396 10.5 43.8025 10.5C43.8654 10.5 43.9283 10.5 43.9911 10.5C44.054 10.5 44.1168 10.5 44.1796 10.5C44.2424 10.5 44.3052 10.5 44.368 10.5C44.4307 10.5 44.4935 10.5 44.5562 10.5C44.6189 10.5 44.6816 10.5 44.7442 10.5C44.8069 10.5 44.8695 10.5 44.9321 10.5C44.9947 10.5 45.0573 10.5 45.1198 10.5C45.1824 10.5 45.2449 10.5 45.3074 10.5C45.3699 10.5 45.4324 10.5 45.4949 10.5C45.5573 10.5 45.6198 10.5 45.6822 10.5C45.7446 10.5 45.807 10.5 45.8693 10.5C45.9317 10.5 45.994 10.5 46.0564 10.5C46.1187 10.5 46.181 10.5 46.2433 10.5C46.3055 10.5 46.3678 10.5 46.43 10.5C46.4922 10.5 46.5544 10.5 46.6166 10.5C46.6788 10.5 46.741 10.5 46.8031 10.5C46.8653 10.5 46.9274 10.5 46.9895 10.5C47.0516 10.5 47.1136 10.5 47.1757 10.5C47.2378 10.5 47.2998 10.5 47.3618 10.5C47.4238 10.5 47.4858 10.5 47.5478 10.5C47.6098 10.5 47.6717 10.5 47.7337 10.5C47.7956 10.5 47.8575 10.5 47.9194 10.5C47.9813 10.5 48.0432 10.5 48.105 10.5C48.1669 10.5 48.2287 10.5 48.2905 10.5C48.3524 10.5 48.4142 10.5 48.4759 10.5C48.5377 10.5 48.5995 10.5 48.6612 10.5C48.723 10.5 48.7847 10.5 48.8464 10.5C48.9081 10.5 48.9698 10.5 49.0315 10.5C49.0931 10.5 49.1548 10.5 49.2164 10.5C49.2781 10.5 49.3397 10.5 49.4013 10.5C49.4629 10.5 49.5245 10.5 49.586 10.5C49.6476 10.5 49.7092 10.5 49.7707 10.5C49.8322 10.5 49.8937 10.5 49.9552 10.5C50.0168 10.5 50.0782 10.5 50.1397 10.5C50.2012 10.5 50.2626 10.5 50.3241 10.5C50.3855 10.5 50.4469 10.5 50.5084 10.5C50.5698 10.5 50.6312 10.5 50.6925 10.5C50.7539 10.5 50.8153 10.5 50.8766 10.5C50.938 10.5 50.9993 10.5 51.0606 10.5C51.122 10.5 51.1833 10.5 51.2446 10.5C51.3059 10.5 51.3671 10.5 51.4284 10.5C51.4897 10.5 51.5509 10.5 51.6122 10.5C51.6734 10.5 51.7346 10.5 51.7959 10.5C51.8571 10.5 51.9183 10.5 51.9795 10.5C52.0407 10.5 52.1018 10.5 52.163 10.5C52.2242 10.5 52.2853 10.5 52.3465 10.5C52.4076 10.5 52.4687 10.5 52.5299 10.5C52.591 10.5 52.6521 10.5 52.7132 10.5C52.7743 10.5 52.8354 10.5 52.8964 10.5C52.9575 10.5 53.0186 10.5 53.0796 10.5C53.1407 10.5 53.2017 10.5 53.2627 10.5C53.3238 10.5 53.3848 10.5 53.4458 10.5C53.5068 10.5 53.5678 10.5 53.6288 10.5C53.6898 10.5 53.7508 10.5 53.8118 10.5C53.8727 10.5 53.9337 10.5 53.9947 10.5C54.0556 10.5 54.1166 10.5 54.1775 10.5C54.2384 10.5 54.2994 10.5 54.3603 10.5C54.4212 10.5 54.4821 10.5 54.543 10.5C54.6039 10.5 54.6648 10.5 54.7257 10.5C54.7866 10.5 54.8475 10.5 54.9084 10.5C54.9692 10.5 55.0301 10.5 55.091 10.5C55.1518 10.5 55.2127 10.5 55.2735 10.5C55.3344 10.5 55.3952 10.5 55.456 10.5C55.5169 10.5 55.5777 10.5 55.6385 10.5C55.6993 10.5 55.7602 10.5 55.821 10.5C55.8818 10.5 55.9426 10.5 56.0034 10.5C56.0642 10.5 56.125 10.5 56.1858 10.5C56.2466 10.5 56.3073 10.5 56.3681 10.5C56.4289 10.5 56.4897 10.5 56.5504 10.5C56.6112 10.5 56.672 10.5 56.7327 10.5C56.7935 10.5 56.8543 10.5 56.915 10.5C56.9758 10.5 57.0365 10.5 57.0973 10.5C57.158 10.5 57.2188 10.5 57.2795 10.5C57.3402 10.5 57.401 10.5 57.4617 10.5C57.5224 10.5 57.5832 10.5 57.6439 10.5C57.7046 10.5 57.7654 10.5 57.8261 10.5C57.8868 10.5 57.9475 10.5 58.0082 10.5C58.069 10.5 58.1297 10.5 58.1904 10.5C58.2511 10.5 58.3118 10.5 58.3726 10.5C58.4333 10.5 58.494 10.5 58.5547 10.5C58.6154 10.5 58.6761 10.5 58.7368 10.5C58.7975 10.5 58.8583 10.5 58.919 10.5C58.9797 10.5 59.0404 10.5 59.1011 10.5C59.1618 10.5 59.2225 10.5 59.2832 10.5C59.344 10.5 59.4047 10.5 59.4654 10.5C59.5261 10.5 59.5868 10.5 59.6475 10.5C59.7082 10.5 59.769 10.5 59.8297 10.5C59.8904 10.5 59.9511 10.5 60.0118 10.5C60.0726 10.5 60.1333 10.5 60.194 10.5C60.2547 10.5 60.3155 10.5 60.3762 10.5C60.4369 10.5 60.4976 10.5 60.5584 10.5C60.6191 10.5 60.6799 10.5 60.7406 10.5C60.8013 10.5 60.8621 10.5 60.9228 10.5C60.9836 10.5 61.0443 10.5 61.1051 10.5C61.1658 10.5 61.2266 10.5 61.2874 10.5C61.3481 10.5 61.4089 10.5 61.4697 10.5C61.5304 10.5 61.5912 10.5 61.652 10.5C61.7128 10.5 61.7735 10.5 61.8343 10.5C61.8951 10.5 61.9559 10.5 62.0167 10.5C62.0775 10.5 62.1383 10.5 62.1991 10.5C62.2599 10.5 62.3208 10.5 62.3816 10.5C62.4424 10.5 62.5032 10.5 62.5641 10.5C62.6249 10.5 62.6858 10.5 62.7466 10.5C62.8074 10.5 62.8683 10.5 62.9292 10.5C62.99 10.5 63.0509 10.5 63.1118 10.5C63.1726 10.5 63.2335 10.5 63.2944 10.5C63.3553 10.5 63.4162 10.5 63.4771 10.5C63.538 10.5 63.5989 10.5 63.6599 10.5C63.7208 10.5 63.7817 10.5 63.8427 10.5C63.9036 10.5 63.9645 10.5 64.0255 10.5C64.0865 10.5 64.1474 10.5 64.2084 10.5C64.2694 10.5 64.3304 10.5 64.3914 10.5C64.4523 10.5 64.5134 10.5 64.5744 10.5C64.6354 10.5 64.6964 10.5 64.7574 10.5C64.8185 10.5 64.8795 10.5 64.9406 10.5C65.0016 10.5 65.0627 10.5 65.1238 10.5C65.1848 10.5 65.2459 10.5 65.307 10.5C65.3681 10.5 65.4292 10.5 65.4904 10.5C65.5515 10.5 65.6126 10.5 65.6738 10.5C65.7349 10.5 65.7961 10.5 65.8572 10.5C65.9184 10.5 65.9796 10.5 66.0408 10.5C66.102 10.5 66.1632 10.5 66.2244 10.5C66.2856 10.5 66.3468 10.5 66.4081 10.5C66.4693 10.5 66.5306 10.5 66.5918 10.5C66.6531 10.5 66.7144 10.5 66.7757 10.5C66.837 10.5 66.8983 10.5 66.9596 10.5C67.021 10.5 67.0823 10.5 67.1437 10.5C67.205 10.5 67.2664 10.5 67.3278 10.5C67.3891 10.5 67.4505 10.5 67.512 10.5C67.5734 10.5 67.6348 10.5 67.6962 10.5C67.7577 10.5 67.8191 10.5 67.8806 10.5C67.9421 10.5 68.0036 10.5 68.0651 10.5C68.1266 10.5 68.1881 10.5 68.2497 10.5C68.3112 10.5 68.3727 10.5 68.4343 10.5C68.4959 10.5 68.5575 10.5 68.6191 10.5C68.6807 10.5 68.7423 10.5 68.804 10.5C68.8656 10.5 68.9273 10.5 68.9889 10.5C69.0506 10.5 69.1123 10.5 69.174 10.5C69.2357 10.5 69.2975 10.5 69.3592 10.5C69.421 10.5 69.4827 10.5 69.5445 10.5C69.6063 10.5 69.6681 10.5 69.7299 10.5C69.7917 10.5 69.8536 10.5 69.9154 10.5C69.9773 10.5 70.0392 10.5 70.1011 10.5C70.163 10.5 70.2249 10.5 70.2868 10.5C70.3488 10.5 70.4107 10.5 70.4727 10.5C70.5347 10.5 70.5967 10.5 70.6587 10.5C70.7207 10.5 70.7828 10.5 70.8448 10.5C70.9069 10.5 70.969 10.5 71.0311 10.5C71.0932 10.5 71.1553 10.5 71.2174 10.5C71.2796 10.5 71.3418 10.5 71.4039 10.5C71.4661 10.5 71.5283 10.5 71.5906 10.5C71.6528 10.5 71.7151 10.5 71.7773 10.5C71.8396 10.5 71.9019 10.5 71.9642 10.5C72.0266 10.5 72.0889 10.5 72.1513 10.5C72.2137 10.5 72.276 10.5 72.3385 10.5C72.4009 10.5 72.4633 10.5 72.5258 10.5C72.5882 10.5 72.6507 10.5 72.7132 10.5C72.7758 10.5 72.8383 10.5 72.9008 10.5C72.9634 10.5 73.026 10.5 73.0886 10.5C73.1512 10.5 73.2139 10.5 73.2765 10.5C73.3392 10.5 73.4019 10.5 73.4646 10.5C73.5273 10.5 73.59 10.5 73.6528 10.5C73.7155 10.5 73.7783 10.5 73.8411 10.5C73.9039 10.5 73.9668 10.5 74.0296 10.5C74.0925 10.5 74.1554 10.5 74.2183 10.5C74.2812 10.5 74.3442 10.5 74.4072 10.5C74.4701 10.5 74.5331 10.5 74.5962 10.5C74.6592 10.5 74.7222 10.5 74.7853 10.5C74.8484 10.5 74.9115 10.5 74.9746 10.5C75.0378 10.5 75.101 10.5 75.1641 10.5C75.2273 10.5 75.2906 10.5 75.3538 10.5C75.4171 10.5 75.4803 10.5 75.5437 10.5C75.607 10.5 75.6703 10.5 75.7337 10.5C75.797 10.5 75.8604 10.5 75.9239 10.5C75.9873 10.5 76.0507 10.5 76.1142 10.5C76.1777 10.5 76.2412 10.5 76.3048 10.5C76.3683 10.5 76.4319 10.5 76.4955 10.5C76.5591 10.5 76.6227 10.5 76.6864 10.5C76.7501 10.5 76.8138 10.5 76.8775 10.5C76.9412 10.5 77.005 10.5 77.0688 10.5C77.1326 10.5 77.1964 10.5 77.2603 10.5C77.3241 10.5 77.388 10.5 77.4519 10.5C77.5159 10.5 77.5798 10.5 77.6438 10.5C77.7078 10.5 77.7718 10.5 77.8359 10.5C77.8999 10.5 77.964 10.5 78.0281 10.5C78.0922 10.5 78.1564 10.5 78.2206 10.5C78.2848 10.5 78.349 10.5 78.4132 10.5C78.4775 10.5 78.5418 10.5 78.6061 10.5C78.6704 10.5 78.7347 10.5 78.7991 10.5C78.8635 10.5 78.9279 10.5 78.9924 10.5C79.0569 10.5 79.1214 10.5 79.1859 10.5C79.2504 10.5 79.315 10.5 79.3796 10.5C79.4442 10.5 79.5088 10.5 79.5735 10.5C79.6381 10.5 79.7029 10.5 79.7676 10.5C79.8323 10.5 79.8971 10.5 79.9619 10.5C80.0267 10.5 80.0916 10.5 80.1565 10.5C80.2214 10.5 80.2863 10.5 80.3513 10.5C80.4162 10.5 80.4812 10.5 80.5462 10.5C80.6113 10.5 80.6764 10.5 80.7415 10.5C80.8066 10.5 80.8717 10.5 80.9369 10.5C81.0021 10.5 81.0673 10.5 81.1326 10.5C81.1979 10.5 81.2632 10.5 81.3285 10.5C81.3938 10.5 81.4592 10.5 81.5246 10.5C81.5901 10.5 81.6555 10.5 81.721 10.5C81.7865 10.5 81.852 10.5 81.9176 10.5C81.9832 10.5 82.0488 10.5 82.1145 10.5C82.1801 10.5 82.2458 10.5 82.3115 10.5C82.3773 10.5 82.4431 10.5 82.5089 10.5C82.5747 10.5 82.6405 10.5 82.7065 10.5C82.7723 10.5 82.8383 10.5 82.9043 10.5C82.9702 10.5 83.0363 10.5 83.1023 10.5C83.1684 10.5 83.2345 10.5 83.3007 10.5C83.3668 10.5 83.433 10.5 83.4992 10.5C83.5655 10.5 83.6317 10.5 83.698 10.5C83.7644 10.5 83.8307 10.5 83.8971 10.5C83.9635 10.5 84.03 10.5 84.0965 10.5C84.1629 10.5 84.2295 10.5 84.296 10.5C84.3626 10.5 84.4292 10.5 84.4959 10.5C84.5626 10.5 84.6293 10.5 84.696 10.5C84.7628 10.5 84.8296 10.5 84.8964 10.5C84.9632 10.5 85.0301 10.5 85.0971 10.5C85.164 10.5 85.231 10.5 85.298 10.5C85.365 10.5 85.4321 10.5 85.4992 10.5C85.5663 10.5 85.6334 10.5 85.7006 10.5C85.7678 10.5 85.8351 10.5 85.9024 10.5C85.9697 10.5 86.037 10.5 86.1044 10.5C86.1718 10.5 86.2392 10.5 86.3067 10.5C86.3742 10.5 86.4417 10.5 86.5093 10.5C86.5768 10.5 86.6445 10.5 86.7121 10.5C86.7798 10.5 86.8475 10.5 86.9153 10.5C86.983 10.5 87.0508 10.5 87.1187 10.5C87.1866 10.5 87.2545 10.5 87.3224 10.5C87.3904 10.5 87.4584 10.5 87.5264 10.5C87.5945 10.5 87.6626 10.5 87.7307 10.5C87.7989 10.5 87.8671 10.5 87.9353 10.5C88.0036 10.5 88.0719 10.5 88.1402 10.5C88.2086 10.5 88.277 10.5 88.3454 10.5C88.4139 10.5 88.4824 10.5 88.5509 10.5C88.6195 10.5 88.6881 10.5 88.7567 10.5C88.8254 10.5 88.8941 10.5 88.9628 10.5C89.0316 10.5 89.1004 10.5 89.1692 10.5C89.2381 10.5 89.307 10.5 89.3759 10.5C89.4449 10.5 89.5139 10.5 89.583 10.5C89.652 10.5 89.7211 10.5 89.7903 10.5C89.8595 10.5 89.9287 10.5 89.9979 10.5C90.0672 10.5 90.1365 10.5 90.2059 10.5C90.2753 10.5 90.3447 10.5 90.4142 10.5C90.4837 10.5 90.5532 10.5 90.6228 10.5C90.6924 10.5 90.762 10.5 90.8317 10.5C90.9014 10.5 90.9712 10.5 91.041 10.5C91.1108 10.5 91.1806 10.5 91.2505 10.5C91.3204 10.5 91.3904 10.5 91.4604 10.5C91.5305 10.5 91.6005 10.5 91.6707 10.5C91.7408 10.5 91.811 10.5 91.8812 10.5C91.9515 10.5 92.0218 10.5 92.0921 10.5C92.1625 10.5 92.2329 10.5 92.3034 10.5C92.3738 10.5 92.4444 10.5 92.5149 10.5C92.5855 10.5 92.6561 10.5 92.7268 10.5C92.7975 10.5 92.8683 10.5 92.9391 10.5C93.0099 10.5 93.0808 10.5 93.1517 10.5C93.2226 10.5 93.2936 10.5 93.3646 10.5C93.4356 10.5 93.5067 10.5 93.5779 10.5C93.649 10.5 93.7203 10.5 93.7915 10.5C93.8628 10.5 93.9341 10.5 94.0055 10.5C94.0769 10.5 94.1483 10.5 94.2198 10.5C94.2914 10.5 94.3629 10.5 94.4345 10.5C94.5062 10.5 94.5778 10.5 94.6496 10.5C94.7213 10.5 94.7931 10.5 94.865 10.5C94.9369 10.5 95.0088 10.5 95.0808 10.5C95.1527 10.5 95.2248 10.5 95.2969 10.5C95.369 10.5 95.4412 10.5 95.5134 10.5C95.5856 10.5 95.6579 10.5 95.7302 10.5C95.8026 10.5 95.875 10.5 95.9475 10.5C96.0199 10.5 96.0925 10.5 96.1651 10.5C96.2377 10.5 96.3103 10.5 96.383 10.5C96.4558 10.5 96.5285 10.5 96.6014 10.5C96.6742 10.5 96.7471 10.5 96.8201 10.5C96.8931 10.5 96.9661 10.5 97.0392 10.5C97.1123 10.5 97.1855 10.5 97.2587 10.5C97.3319 10.5 97.4052 10.5 97.4785 10.5C97.5519 10.5 97.6253 10.5 97.6988 10.5C97.7723 10.5 97.8458 10.5 97.9194 10.5C97.993 10.5 98.0667 10.5 98.1404 10.5C98.2142 10.5 98.288 10.5 98.3619 10.5C98.4357 10.5 98.5097 10.5 98.5837 10.5C98.6577 10.5 98.7317 10.5 98.8058 10.5C98.88 10.5 98.9542 10.5 99.0284 10.5C99.1027 10.5 99.177 10.5 99.2514 10.5C99.3258 10.5 99.4003 10.5 99.4748 10.5C99.5493 10.5 99.6239 10.5 99.6986 10.5C99.7733 10.5 99.848 10.5 99.9228 10.5C99.9976 10.5 100.072 10.5 100.147 10.5C100.222 10.5 100.297 10.5 100.372 10.5C100.447 10.5 100.523 10.5 100.598 10.5C100.673 10.5 100.748 10.5 100.824 10.5C100.899 10.5 100.974 10.5 101.05 10.5C101.125 10.5 101.201 10.5 101.277 10.5C101.352 10.5 101.428 10.5 101.504 10.5C101.579 10.5 101.655 10.5 101.731 10.5C101.807 10.5 101.883 10.5 101.959 10.5C102.035 10.5 102.111 10.5 102.187 10.5C102.263 10.5 102.34 10.5 102.416 10.5C102.492 10.5 102.569 10.5 102.645 10.5C102.722 10.5 102.798 10.5 102.875 10.5C102.951 10.5 103.028 10.5 103.105 10.5C103.182 10.5 103.258 10.5 103.335 10.5C103.412 10.5 103.489 10.5 103.566 10.5C103.643 10.5 103.72 10.5 103.798 10.5C103.875 10.5 103.952 10.5 104.029 10.5C104.107 10.5 104.184 10.5 104.262 10.5C104.339 10.5 104.417 10.5 104.494 10.5V7.5C104.417 7.5 104.339 7.5 104.262 7.5C104.184 7.5 104.107 7.5 104.029 7.5C103.952 7.5 103.875 7.5 103.798 7.5C103.72 7.5 103.643 7.5 103.566 7.5C103.489 7.5 103.412 7.5 103.335 7.5C103.258 7.5 103.182 7.5 103.105 7.5C103.028 7.5 102.951 7.5 102.875 7.5C102.798 7.5 102.722 7.5 102.645 7.5C102.569 7.5 102.492 7.5 102.416 7.5C102.34 7.5 102.263 7.5 102.187 7.5C102.111 7.5 102.035 7.5 101.959 7.5C101.883 7.5 101.807 7.5 101.731 7.5C101.655 7.5 101.579 7.5 101.504 7.5C101.428 7.5 101.352 7.5 101.277 7.5C101.201 7.5 101.125 7.5 101.05 7.5C100.974 7.5 100.899 7.5 100.824 7.5C100.748 7.5 100.673 7.5 100.598 7.5C100.523 7.5 100.447 7.5 100.372 7.5C100.297 7.5 100.222 7.5 100.147 7.5C100.072 7.5 99.9976 7.5 99.9228 7.5C99.848 7.5 99.7733 7.5 99.6986 7.5C99.6239 7.5 99.5493 7.5 99.4748 7.5C99.4003 7.5 99.3258 7.5 99.2514 7.5C99.177 7.5 99.1027 7.5 99.0284 7.5C98.9542 7.5 98.88 7.5 98.8058 7.5C98.7317 7.5 98.6577 7.5 98.5837 7.5C98.5097 7.5 98.4357 7.5 98.3619 7.5C98.288 7.5 98.2142 7.5 98.1404 7.5C98.0667 7.5 97.993 7.5 97.9194 7.5C97.8458 7.5 97.7723 7.5 97.6988 7.5C97.6253 7.5 97.5519 7.5 97.4785 7.5C97.4052 7.5 97.3319 7.5 97.2587 7.5C97.1855 7.5 97.1123 7.5 97.0392 7.5C96.9661 7.5 96.8931 7.5 96.8201 7.5C96.7471 7.5 96.6742 7.5 96.6014 7.5C96.5285 7.5 96.4558 7.5 96.383 7.5C96.3103 7.5 96.2377 7.5 96.1651 7.5C96.0925 7.5 96.0199 7.5 95.9475 7.5C95.875 7.5 95.8026 7.5 95.7302 7.5C95.6579 7.5 95.5856 7.5 95.5134 7.5C95.4412 7.5 95.369 7.5 95.2969 7.5C95.2248 7.5 95.1527 7.5 95.0808 7.5C95.0088 7.5 94.9369 7.5 94.865 7.5C94.7931 7.5 94.7213 7.5 94.6496 7.5C94.5778 7.5 94.5062 7.5 94.4345 7.5C94.3629 7.5 94.2914 7.5 94.2198 7.5C94.1483 7.5 94.0769 7.5 94.0055 7.5C93.9341 7.5 93.8628 7.5 93.7915 7.5C93.7203 7.5 93.649 7.5 93.5779 7.5C93.5067 7.5 93.4356 7.5 93.3646 7.5C93.2936 7.5 93.2226 7.5 93.1517 7.5C93.0808 7.5 93.0099 7.5 92.9391 7.5C92.8683 7.5 92.7975 7.5 92.7268 7.5C92.6561 7.5 92.5855 7.5 92.5149 7.5C92.4444 7.5 92.3738 7.5 92.3034 7.5C92.2329 7.5 92.1625 7.5 92.0921 7.5C92.0218 7.5 91.9515 7.5 91.8812 7.5C91.811 7.5 91.7408 7.5 91.6707 7.5C91.6005 7.5 91.5305 7.5 91.4604 7.5C91.3904 7.5 91.3204 7.5 91.2505 7.5C91.1806 7.5 91.1108 7.5 91.041 7.5C90.9712 7.5 90.9014 7.5 90.8317 7.5C90.762 7.5 90.6924 7.5 90.6228 7.5C90.5532 7.5 90.4837 7.5 90.4142 7.5C90.3447 7.5 90.2753 7.5 90.2059 7.5C90.1365 7.5 90.0672 7.5 89.9979 7.5C89.9287 7.5 89.8595 7.5 89.7903 7.5C89.7211 7.5 89.652 7.5 89.583 7.5C89.5139 7.5 89.4449 7.5 89.3759 7.5C89.307 7.5 89.2381 7.5 89.1692 7.5C89.1004 7.5 89.0316 7.5 88.9628 7.5C88.8941 7.5 88.8254 7.5 88.7567 7.5C88.6881 7.5 88.6195 7.5 88.5509 7.5C88.4824 7.5 88.4139 7.5 88.3454 7.5C88.277 7.5 88.2086 7.5 88.1402 7.5C88.0719 7.5 88.0036 7.5 87.9353 7.5C87.8671 7.5 87.7989 7.5 87.7307 7.5C87.6626 7.5 87.5945 7.5 87.5264 7.5C87.4584 7.5 87.3904 7.5 87.3224 7.5C87.2545 7.5 87.1866 7.5 87.1187 7.5C87.0508 7.5 86.983 7.5 86.9153 7.5C86.8475 7.5 86.7798 7.5 86.7121 7.5C86.6445 7.5 86.5768 7.5 86.5093 7.5C86.4417 7.5 86.3742 7.5 86.3067 7.5C86.2392 7.5 86.1718 7.5 86.1044 7.5C86.037 7.5 85.9697 7.5 85.9024 7.5C85.8351 7.5 85.7678 7.5 85.7006 7.5C85.6334 7.5 85.5663 7.5 85.4992 7.5C85.4321 7.5 85.365 7.5 85.298 7.5C85.231 7.5 85.164 7.5 85.0971 7.5C85.0301 7.5 84.9632 7.5 84.8964 7.5C84.8296 7.5 84.7628 7.5 84.696 7.5C84.6293 7.5 84.5626 7.5 84.4959 7.5C84.4292 7.5 84.3626 7.5 84.296 7.5C84.2295 7.5 84.1629 7.5 84.0965 7.5C84.03 7.5 83.9635 7.5 83.8971 7.5C83.8307 7.5 83.7644 7.5 83.698 7.5C83.6317 7.5 83.5655 7.5 83.4992 7.5C83.433 7.5 83.3668 7.5 83.3007 7.5C83.2345 7.5 83.1684 7.5 83.1023 7.5C83.0363 7.5 82.9702 7.5 82.9043 7.5C82.8383 7.5 82.7723 7.5 82.7065 7.5C82.6405 7.5 82.5747 7.5 82.5089 7.5C82.4431 7.5 82.3773 7.5 82.3115 7.5C82.2458 7.5 82.1801 7.5 82.1145 7.5C82.0488 7.5 81.9832 7.5 81.9176 7.5C81.852 7.5 81.7865 7.5 81.721 7.5C81.6555 7.5 81.5901 7.5 81.5246 7.5C81.4592 7.5 81.3938 7.5 81.3285 7.5C81.2632 7.5 81.1979 7.5 81.1326 7.5C81.0673 7.5 81.0021 7.5 80.9369 7.5C80.8717 7.5 80.8066 7.5 80.7415 7.5C80.6764 7.5 80.6113 7.5 80.5462 7.5C80.4812 7.5 80.4162 7.5 80.3513 7.5C80.2863 7.5 80.2214 7.5 80.1565 7.5C80.0916 7.5 80.0267 7.5 79.9619 7.5C79.8971 7.5 79.8323 7.5 79.7676 7.5C79.7029 7.5 79.6381 7.5 79.5735 7.5C79.5088 7.5 79.4442 7.5 79.3796 7.5C79.315 7.5 79.2504 7.5 79.1859 7.5C79.1214 7.5 79.0569 7.5 78.9924 7.5C78.9279 7.5 78.8635 7.5 78.7991 7.5C78.7347 7.5 78.6704 7.5 78.6061 7.5C78.5418 7.5 78.4775 7.5 78.4132 7.5C78.349 7.5 78.2848 7.5 78.2206 7.5C78.1564 7.5 78.0922 7.5 78.0281 7.5C77.964 7.5 77.8999 7.5 77.8359 7.5C77.7718 7.5 77.7078 7.5 77.6438 7.5C77.5798 7.5 77.5159 7.5 77.4519 7.5C77.388 7.5 77.3241 7.5 77.2603 7.5C77.1964 7.5 77.1326 7.5 77.0688 7.5C77.005 7.5 76.9412 7.5 76.8775 7.5C76.8138 7.5 76.7501 7.5 76.6864 7.5C76.6227 7.5 76.5591 7.5 76.4955 7.5C76.4319 7.5 76.3683 7.5 76.3048 7.5C76.2412 7.5 76.1777 7.5 76.1142 7.5C76.0507 7.5 75.9873 7.5 75.9239 7.5C75.8604 7.5 75.797 7.5 75.7337 7.5C75.6703 7.5 75.607 7.5 75.5437 7.5C75.4803 7.5 75.4171 7.5 75.3538 7.5C75.2906 7.5 75.2273 7.5 75.1641 7.5C75.101 7.5 75.0378 7.5 74.9746 7.5C74.9115 7.5 74.8484 7.5 74.7853 7.5C74.7222 7.5 74.6592 7.5 74.5962 7.5C74.5331 7.5 74.4701 7.5 74.4072 7.5C74.3442 7.5 74.2812 7.5 74.2183 7.5C74.1554 7.5 74.0925 7.5 74.0296 7.5C73.9668 7.5 73.9039 7.5 73.8411 7.5C73.7783 7.5 73.7155 7.5 73.6528 7.5C73.59 7.5 73.5273 7.5 73.4646 7.5C73.4019 7.5 73.3392 7.5 73.2765 7.5C73.2139 7.5 73.1512 7.5 73.0886 7.5C73.026 7.5 72.9634 7.5 72.9008 7.5C72.8383 7.5 72.7758 7.5 72.7132 7.5C72.6507 7.5 72.5882 7.5 72.5258 7.5C72.4633 7.5 72.4009 7.5 72.3385 7.5C72.276 7.5 72.2137 7.5 72.1513 7.5C72.0889 7.5 72.0266 7.5 71.9642 7.5C71.9019 7.5 71.8396 7.5 71.7773 7.5C71.7151 7.5 71.6528 7.5 71.5906 7.5C71.5283 7.5 71.4661 7.5 71.4039 7.5C71.3418 7.5 71.2796 7.5 71.2174 7.5C71.1553 7.5 71.0932 7.5 71.0311 7.5C70.969 7.5 70.9069 7.5 70.8448 7.5C70.7828 7.5 70.7207 7.5 70.6587 7.5C70.5967 7.5 70.5347 7.5 70.4727 7.5C70.4107 7.5 70.3488 7.5 70.2868 7.5C70.2249 7.5 70.163 7.5 70.1011 7.5C70.0392 7.5 69.9773 7.5 69.9154 7.5C69.8536 7.5 69.7917 7.5 69.7299 7.5C69.6681 7.5 69.6063 7.5 69.5445 7.5C69.4827 7.5 69.421 7.5 69.3592 7.5C69.2975 7.5 69.2357 7.5 69.174 7.5C69.1123 7.5 69.0506 7.5 68.9889 7.5C68.9273 7.5 68.8656 7.5 68.804 7.5C68.7423 7.5 68.6807 7.5 68.6191 7.5C68.5575 7.5 68.4959 7.5 68.4343 7.5C68.3727 7.5 68.3112 7.5 68.2497 7.5C68.1881 7.5 68.1266 7.5 68.0651 7.5C68.0036 7.5 67.9421 7.5 67.8806 7.5C67.8191 7.5 67.7577 7.5 67.6962 7.5C67.6348 7.5 67.5734 7.5 67.512 7.5C67.4505 7.5 67.3891 7.5 67.3278 7.5C67.2664 7.5 67.205 7.5 67.1437 7.5C67.0823 7.5 67.021 7.5 66.9596 7.5C66.8983 7.5 66.837 7.5 66.7757 7.5C66.7144 7.5 66.6531 7.5 66.5918 7.5C66.5306 7.5 66.4693 7.5 66.4081 7.5C66.3468 7.5 66.2856 7.5 66.2244 7.5C66.1632 7.5 66.102 7.5 66.0408 7.5C65.9796 7.5 65.9184 7.5 65.8572 7.5C65.7961 7.5 65.7349 7.5 65.6738 7.5C65.6126 7.5 65.5515 7.5 65.4904 7.5C65.4292 7.5 65.3681 7.5 65.307 7.5C65.2459 7.5 65.1848 7.5 65.1238 7.5C65.0627 7.5 65.0016 7.5 64.9406 7.5C64.8795 7.5 64.8185 7.5 64.7574 7.5C64.6964 7.5 64.6354 7.5 64.5744 7.5C64.5134 7.5 64.4523 7.5 64.3914 7.5C64.3304 7.5 64.2694 7.5 64.2084 7.5C64.1474 7.5 64.0865 7.5 64.0255 7.5C63.9645 7.5 63.9036 7.5 63.8427 7.5C63.7817 7.5 63.7208 7.5 63.6599 7.5C63.5989 7.5 63.538 7.5 63.4771 7.5C63.4162 7.5 63.3553 7.5 63.2944 7.5C63.2335 7.5 63.1726 7.5 63.1118 7.5C63.0509 7.5 62.99 7.5 62.9292 7.5C62.8683 7.5 62.8074 7.5 62.7466 7.5C62.6858 7.5 62.6249 7.5 62.5641 7.5C62.5032 7.5 62.4424 7.5 62.3816 7.5C62.3208 7.5 62.2599 7.5 62.1991 7.5C62.1383 7.5 62.0775 7.5 62.0167 7.5C61.9559 7.5 61.8951 7.5 61.8343 7.5C61.7735 7.5 61.7128 7.5 61.652 7.5C61.5912 7.5 61.5304 7.5 61.4697 7.5C61.4089 7.5 61.3481 7.5 61.2874 7.5C61.2266 7.5 61.1658 7.5 61.1051 7.5C61.0443 7.5 60.9836 7.5 60.9228 7.5C60.8621 7.5 60.8013 7.5 60.7406 7.5C60.6799 7.5 60.6191 7.5 60.5584 7.5C60.4976 7.5 60.4369 7.5 60.3762 7.5C60.3155 7.5 60.2547 7.5 60.194 7.5C60.1333 7.5 60.0726 7.5 60.0118 7.5C59.9511 7.5 59.8904 7.5 59.8297 7.5C59.769 7.5 59.7082 7.5 59.6475 7.5C59.5868 7.5 59.5261 7.5 59.4654 7.5C59.4047 7.5 59.344 7.5 59.2832 7.5C59.2225 7.5 59.1618 7.5 59.1011 7.5C59.0404 7.5 58.9797 7.5 58.919 7.5C58.8583 7.5 58.7975 7.5 58.7368 7.5C58.6761 7.5 58.6154 7.5 58.5547 7.5C58.494 7.5 58.4333 7.5 58.3726 7.5C58.3118 7.5 58.2511 7.5 58.1904 7.5C58.1297 7.5 58.069 7.5 58.0082 7.5C57.9475 7.5 57.8868 7.5 57.8261 7.5C57.7654 7.5 57.7046 7.5 57.6439 7.5C57.5832 7.5 57.5224 7.5 57.4617 7.5C57.401 7.5 57.3402 7.5 57.2795 7.5C57.2188 7.5 57.158 7.5 57.0973 7.5C57.0365 7.5 56.9758 7.5 56.915 7.5C56.8543 7.5 56.7935 7.5 56.7327 7.5C56.672 7.5 56.6112 7.5 56.5504 7.5C56.4897 7.5 56.4289 7.5 56.3681 7.5C56.3073 7.5 56.2466 7.5 56.1858 7.5C56.125 7.5 56.0642 7.5 56.0034 7.5C55.9426 7.5 55.8818 7.5 55.821 7.5C55.7602 7.5 55.6993 7.5 55.6385 7.5C55.5777 7.5 55.5169 7.5 55.456 7.5C55.3952 7.5 55.3344 7.5 55.2735 7.5C55.2127 7.5 55.1518 7.5 55.091 7.5C55.0301 7.5 54.9692 7.5 54.9084 7.5C54.8475 7.5 54.7866 7.5 54.7257 7.5C54.6648 7.5 54.6039 7.5 54.543 7.5C54.4821 7.5 54.4212 7.5 54.3603 7.5C54.2994 7.5 54.2384 7.5 54.1775 7.5C54.1166 7.5 54.0556 7.5 53.9947 7.5C53.9337 7.5 53.8727 7.5 53.8118 7.5C53.7508 7.5 53.6898 7.5 53.6288 7.5C53.5678 7.5 53.5068 7.5 53.4458 7.5C53.3848 7.5 53.3238 7.5 53.2627 7.5C53.2017 7.5 53.1407 7.5 53.0796 7.5C53.0186 7.5 52.9575 7.5 52.8964 7.5C52.8354 7.5 52.7743 7.5 52.7132 7.5C52.6521 7.5 52.591 7.5 52.5299 7.5C52.4687 7.5 52.4076 7.5 52.3465 7.5C52.2853 7.5 52.2242 7.5 52.163 7.5C52.1018 7.5 52.0407 7.5 51.9795 7.5C51.9183 7.5 51.8571 7.5 51.7959 7.5C51.7346 7.5 51.6734 7.5 51.6122 7.5C51.5509 7.5 51.4897 7.5 51.4284 7.5C51.3671 7.5 51.3059 7.5 51.2446 7.5C51.1833 7.5 51.122 7.5 51.0606 7.5C50.9993 7.5 50.938 7.5 50.8766 7.5C50.8153 7.5 50.7539 7.5 50.6925 7.5C50.6312 7.5 50.5698 7.5 50.5084 7.5C50.4469 7.5 50.3855 7.5 50.3241 7.5C50.2626 7.5 50.2012 7.5 50.1397 7.5C50.0782 7.5 50.0168 7.5 49.9552 7.5C49.8937 7.5 49.8322 7.5 49.7707 7.5C49.7092 7.5 49.6476 7.5 49.586 7.5C49.5245 7.5 49.4629 7.5 49.4013 7.5C49.3397 7.5 49.2781 7.5 49.2164 7.5C49.1548 7.5 49.0931 7.5 49.0315 7.5C48.9698 7.5 48.9081 7.5 48.8464 7.5C48.7847 7.5 48.723 7.5 48.6612 7.5C48.5995 7.5 48.5377 7.5 48.4759 7.5C48.4142 7.5 48.3524 7.5 48.2905 7.5C48.2287 7.5 48.1669 7.5 48.105 7.5C48.0432 7.5 47.9813 7.5 47.9194 7.5C47.8575 7.5 47.7956 7.5 47.7337 7.5C47.6717 7.5 47.6098 7.5 47.5478 7.5C47.4858 7.5 47.4238 7.5 47.3618 7.5C47.2998 7.5 47.2378 7.5 47.1757 7.5C47.1136 7.5 47.0516 7.5 46.9895 7.5C46.9274 7.5 46.8653 7.5 46.8031 7.5C46.741 7.5 46.6788 7.5 46.6166 7.5C46.5544 7.5 46.4922 7.5 46.43 7.5C46.3678 7.5 46.3055 7.5 46.2433 7.5C46.181 7.5 46.1187 7.5 46.0564 7.5C45.994 7.5 45.9317 7.5 45.8693 7.5C45.807 7.5 45.7446 7.5 45.6822 7.5C45.6198 7.5 45.5573 7.5 45.4949 7.5C45.4324 7.5 45.3699 7.5 45.3074 7.5C45.2449 7.5 45.1824 7.5 45.1198 7.5C45.0573 7.5 44.9947 7.5 44.9321 7.5C44.8695 7.5 44.8069 7.5 44.7442 7.5C44.6816 7.5 44.6189 7.5 44.5562 7.5C44.4935 7.5 44.4307 7.5 44.368 7.5C44.3052 7.5 44.2424 7.5 44.1796 7.5C44.1168 7.5 44.054 7.5 43.9911 7.5C43.9283 7.5 43.8654 7.5 43.8025 7.5C43.7396 7.5 43.6766 7.5 43.6137 7.5C43.5507 7.5 43.4877 7.5 43.4247 7.5C43.3617 7.5 43.2986 7.5 43.2355 7.5C43.1725 7.5 43.1094 7.5 43.0462 7.5C42.9831 7.5 42.9199 7.5 42.8567 7.5C42.7936 7.5 42.7303 7.5 42.6671 7.5C42.6039 7.5 42.5406 7.5 42.4773 7.5C42.414 7.5 42.3506 7.5 42.2873 7.5C42.2239 7.5 42.1605 7.5 42.0971 7.5C42.0337 7.5 41.9702 7.5 41.9068 7.5C41.8433 7.5 41.7798 7.5 41.7162 7.5C41.6527 7.5 41.5891 7.5 41.5255 7.5C41.4619 7.5 41.3983 7.5 41.3346 7.5C41.271 7.5 41.2073 7.5 41.1436 7.5C41.0798 7.5 41.0161 7.5 40.9523 7.5C40.8885 7.5 40.8247 7.5 40.7608 7.5C40.697 7.5 40.6331 7.5 40.5692 7.5C40.5053 7.5 40.4413 7.5 40.3774 7.5C40.3134 7.5 40.2494 7.5 40.1853 7.5C40.1213 7.5 40.0572 7.5 39.9931 7.5C39.929 7.5 39.8648 7.5 39.8007 7.5C39.7365 7.5 39.6723 7.5 39.608 7.5C39.5438 7.5 39.4795 7.5 39.4152 7.5C39.3509 7.5 39.2865 7.5 39.2221 7.5C39.1578 7.5 39.0934 7.5 39.0289 7.5C38.9645 7.5 38.9 7.5 38.8354 7.5C38.7709 7.5 38.7064 7.5 38.6418 7.5C38.5772 7.5 38.5126 7.5 38.4479 7.5C38.3832 7.5 38.3185 7.5 38.2538 7.5C38.1891 7.5 38.1243 7.5 38.0595 7.5C37.9947 7.5 37.9299 7.5 37.865 7.5C37.8001 7.5 37.7352 7.5 37.6702 7.5C37.6053 7.5 37.5403 7.5 37.4753 7.5C37.4102 7.5 37.3452 7.5 37.2801 7.5C37.215 7.5 37.1498 7.5 37.0846 7.5C37.0195 7.5 36.9542 7.5 36.889 7.5C36.8237 7.5 36.7584 7.5 36.6931 7.5C36.6278 7.5 36.5624 7.5 36.497 7.5C36.4316 7.5 36.3661 7.5 36.3006 7.5C36.2352 7.5 36.1696 7.5 36.1041 7.5C36.0385 7.5 35.9729 7.5 35.9072 7.5C35.8416 7.5 35.7759 7.5 35.7102 7.5C35.6445 7.5 35.5787 7.5 35.5129 7.5C35.4471 7.5 35.3812 7.5 35.3153 7.5C35.2495 7.5 35.1835 7.5 35.1175 7.5C35.0516 7.5 34.9856 7.5 34.9195 7.5C34.8535 7.5 34.7874 7.5 34.7212 7.5C34.6551 7.5 34.5889 7.5 34.5227 7.5C34.4565 7.5 34.3902 7.5 34.3239 7.5C34.2576 7.5 34.1912 7.5 34.1248 7.5C34.0584 7.5 33.992 7.5 33.9255 7.5C33.8591 7.5 33.7925 7.5 33.726 7.5C33.6594 7.5 33.5928 7.5 33.5261 7.5C33.4595 7.5 33.3928 7.5 33.326 7.5C33.2593 7.5 33.1925 7.5 33.1257 7.5C33.0589 7.5 32.992 7.5 32.9251 7.5C32.8582 7.5 32.7912 7.5 32.7242 7.5C32.6572 7.5 32.5901 7.5 32.523 7.5C32.4559 7.5 32.3888 7.5 32.3216 7.5C32.2544 7.5 32.1872 7.5 32.1199 7.5C32.0526 7.5 31.9853 7.5 31.9179 7.5C31.8505 7.5 31.7831 7.5 31.7156 7.5C31.6482 7.5 31.5806 7.5 31.5131 7.5C31.4455 7.5 31.3779 7.5 31.3102 7.5C31.2426 7.5 31.1749 7.5 31.1071 7.5C31.0394 7.5 30.9716 7.5 30.9037 7.5C30.8359 7.5 30.768 7.5 30.7 7.5C30.6321 7.5 30.5641 7.5 30.4961 7.5C30.428 7.5 30.3599 7.5 30.2918 7.5C30.2237 7.5 30.1555 7.5 30.0872 7.5C30.019 7.5 29.9507 7.5 29.8824 7.5C29.814 7.5 29.7456 7.5 29.6772 7.5C29.6088 7.5 29.5403 7.5 29.4717 7.5C29.4032 7.5 29.3346 7.5 29.266 7.5C29.1973 7.5 29.1287 7.5 29.0599 7.5C28.9912 7.5 28.9224 7.5 28.8535 7.5C28.7847 7.5 28.7158 7.5 28.6469 7.5C28.5779 7.5 28.5089 7.5 28.4399 7.5C28.3708 7.5 28.3017 7.5 28.2326 7.5C28.1634 7.5 28.0942 7.5 28.025 7.5C27.9557 7.5 27.8864 7.5 27.817 7.5C27.7477 7.5 27.6783 7.5 27.6088 7.5C27.5393 7.5 27.4698 7.5 27.4002 7.5C27.3306 7.5 27.261 7.5 27.1913 7.5C27.1216 7.5 27.0519 7.5 26.9821 7.5C26.9123 7.5 26.8425 7.5 26.7726 7.5C26.7027 7.5 26.6327 7.5 26.5627 7.5C26.4927 7.5 26.4226 7.5 26.3525 7.5C26.2824 7.5 26.2122 7.5 26.142 7.5C26.0718 7.5 26.0015 7.5 25.9311 7.5C25.8608 7.5 25.7904 7.5 25.7199 7.5C25.6495 7.5 25.579 7.5 25.5084 7.5C25.4378 7.5 25.3672 7.5 25.2965 7.5C25.2259 7.5 25.1551 7.5 25.0843 7.5C25.0135 7.5 24.9427 7.5 24.8718 7.5C24.8009 7.5 24.7299 7.5 24.6589 7.5C24.5879 7.5 24.5168 7.5 24.4456 7.5C24.3745 7.5 24.3033 7.5 24.232 7.5C24.1608 7.5 24.0895 7.5 24.0181 7.5C23.9467 7.5 23.8753 7.5 23.8038 7.5C23.7323 7.5 23.6607 7.5 23.5891 7.5C23.5175 7.5 23.4459 7.5 23.3741 7.5C23.3024 7.5 23.2306 7.5 23.1588 7.5C23.0869 7.5 23.015 7.5 22.943 7.5C22.8711 7.5 22.799 7.5 22.7269 7.5C22.6549 7.5 22.5827 7.5 22.5105 7.5C22.4383 7.5 22.366 7.5 22.2937 7.5C22.2213 7.5 22.1489 7.5 22.0765 7.5C22.004 7.5 21.9315 7.5 21.8589 7.5C21.7863 7.5 21.7137 7.5 21.641 7.5C21.5683 7.5 21.4955 7.5 21.4227 7.5C21.3499 7.5 21.277 7.5 21.204 7.5C21.1311 7.5 21.058 7.5 20.985 7.5C20.9119 7.5 20.8387 7.5 20.7655 7.5C20.6923 7.5 20.619 7.5 20.5457 7.5C20.4724 7.5 20.399 7.5 20.3255 7.5C20.252 7.5 20.1785 7.5 20.1049 7.5C20.0313 7.5 19.9577 7.5 19.8839 7.5C19.8102 7.5 19.7364 7.5 19.6626 7.5C19.5887 7.5 19.5148 7.5 19.4408 7.5C19.3668 7.5 19.2928 7.5 19.2187 7.5C19.1445 7.5 19.0704 7.5 18.9961 7.5C18.9219 7.5 18.8476 7.5 18.7732 7.5C18.6988 7.5 18.6243 7.5 18.5498 7.5C18.4753 7.5 18.4007 7.5 18.3261 7.5C18.2514 7.5 18.1767 7.5 18.1019 7.5C18.0272 7.5 17.9523 7.5 17.8774 7.5C17.8025 7.5 17.7275 7.5 17.6524 7.5C17.5774 7.5 17.5023 7.5 17.4271 7.5C17.3519 7.5 17.2766 7.5 17.2013 7.5C17.126 7.5 17.0506 7.5 16.9751 7.5C16.8996 7.5 16.8241 7.5 16.7485 7.5C16.6729 7.5 16.5972 7.5 16.5215 7.5C16.4457 7.5 16.3699 7.5 16.294 7.5C16.2181 7.5 16.1422 7.5 16.0662 7.5C15.9901 7.5 15.914 7.5 15.8379 7.5C15.7617 7.5 15.6855 7.5 15.6092 7.5C15.5329 7.5 15.4565 7.5 15.38 7.5C15.3036 7.5 15.2271 7.5 15.1505 7.5C15.0739 7.5 14.9972 7.5 14.9205 7.5C14.8437 7.5 14.7669 7.5 14.6901 7.5C14.6132 7.5 14.5362 7.5 14.4592 7.5C14.3822 7.5 14.3051 7.5 14.2279 7.5C14.1507 7.5 14.0735 7.5 13.9962 7.5C13.9188 7.5 13.8415 7.5 13.764 7.5C13.6865 7.5 13.609 7.5 13.5314 7.5C13.4538 7.5 13.3761 7.5 13.2983 7.5C13.2206 7.5 13.1427 7.5 13.0648 7.5C12.9869 7.5 12.9089 7.5 12.8309 7.5C12.7528 7.5 12.6747 7.5 12.5964 7.5C12.5182 7.5 12.44 7.5 12.3616 7.5C12.2832 7.5 12.2048 7.5 12.1263 7.5C12.0478 7.5 11.9692 7.5 11.8905 7.5C11.8119 7.5 11.7331 7.5 11.6543 7.5C11.5755 7.5 11.4966 7.5 11.4176 7.5C11.3386 7.5 11.2596 7.5 11.1805 7.5C11.1014 7.5 11.0221 7.5 10.9429 7.5C10.8636 7.5 10.7842 7.5 10.7048 7.5C10.6254 7.5 10.5458 7.5 10.4663 7.5C10.3867 7.5 10.307 7.5 10.2273 7.5C10.1475 7.5 10.0677 7.5 9.98777 7.5C9.90787 7.5 9.82788 7.5 9.74782 7.5C9.66776 7.5 9.58762 7.5 9.50739 7.5C9.42717 7.5 9.34687 7.5 9.26649 7.5C9.18611 7.5 9.10565 7.5 9.02511 7.5C8.94457 7.5 8.86395 7.5 8.78324 7.5C8.70254 7.5 8.62176 7.5 8.5409 7.5C8.46003 7.5 8.37909 7.5 8.29807 7.5C8.21704 7.5 8.13593 7.5 8.05475 7.5C7.97356 7.5 7.89229 7.5 7.81094 7.5C7.72959 7.5 7.64816 7.5 7.56664 7.5C7.48513 7.5 7.40353 7.5 7.32186 7.5C7.24018 7.5 7.15842 7.5 7.07657 7.5C6.99473 7.5 6.9128 7.5 6.83079 7.5C6.74878 7.5 6.66669 7.5 6.58451 7.5C6.50234 7.5 6.42008 7.5 6.33773 7.5C6.25539 7.5 6.17296 7.5 6.09045 7.5C6.00794 7.5 5.92535 7.5 5.84267 7.5C5.75999 7.5 5.67723 7.5 5.59438 7.5C5.51153 7.5 5.4286 7.5 5.34558 7.5C5.26256 7.5 5.17946 7.5 5.09627 7.5C5.01308 7.5 4.92981 7.5 4.84645 7.5C4.76309 7.5 4.67964 7.5 4.59611 7.5C4.51258 7.5 4.42897 7.5 4.34526 7.5C4.26156 7.5 4.17777 7.5 4.09389 7.5C4.01002 7.5 3.92606 7.5 3.84201 7.5C3.75796 7.5 3.67382 7.5 3.5896 7.5C3.50537 7.5 3.42106 7.5 3.33666 7.5C3.25226 7.5 3.16778 7.5 3.0832 7.5C2.99863 7.5 2.91397 7.5 2.82922 7.5C2.74447 7.5 2.65963 7.5 2.5747 7.5C2.48977 7.5 2.40476 7.5 2.31965 7.5C2.23455 7.5 2.14936 7.5 2.06407 7.5C1.97879 7.5 1.89342 7.5 1.80796 7.5C1.7225 7.5 1.63695 7.5 1.55131 7.5C1.46567 7.5 1.37993 7.5 1.29411 7.5C1.20829 7.5 1.12238 7.5 1.03638 7.5C0.95038 7.5 0.864288 7.5 0.778105 7.5C0.691923 7.5 0.605649 7.5 0.519284 7.5C0.43292 7.5 0.346464 7.5 0.259917 7.5C0.173369 7.5 0.0867306 7.5 0 7.5V10.5Z" fill="white"/>
</svg>
