<svg width="78" height="82" viewBox="0 0 78 82" fill="none" xmlns="http://www.w3.org/2000/svg">
<g filter="url(#filter0_d_1_89)">
<path d="M38.9999 0C31.2865 0 23.7463 2.28731 17.3327 6.57267C10.9192 10.858 5.92052 16.949 2.96871 24.0753C0.0168981 31.2016 -0.755431 39.0432 0.74939 46.6084C2.25421 54.1737 5.96859 61.1228 11.4228 66.577C16.8771 72.0313 23.8262 75.7457 31.3914 77.2505C38.9567 78.7553 46.7983 77.983 53.9246 75.0312C61.0509 72.0793 67.1418 67.0806 71.4272 60.6671C75.7126 54.2536 77.9999 46.7134 77.9999 38.9999C77.9999 28.6565 73.891 18.7367 66.5771 11.4228C59.2632 4.10891 49.3434 0 38.9999 0ZM38.9999 71.4999C32.5721 71.4999 26.2885 69.5938 20.9439 66.0226C15.5994 62.4515 11.4338 57.3757 8.97392 51.4371C6.51407 45.4985 5.87047 38.9639 7.12448 32.6595C8.3785 26.3551 11.4738 20.5642 16.019 16.019C20.5642 11.4738 26.3552 8.37848 32.6595 7.12447C38.9639 5.87045 45.4986 6.51406 51.4371 8.9739C57.3757 11.4337 62.4515 15.5993 66.0227 20.9439C69.5938 26.2885 71.4999 32.572 71.4999 38.9999C71.4999 47.6194 68.0758 55.8859 61.9809 61.9809C55.886 68.0758 47.6195 71.4999 38.9999 71.4999Z" fill="white"/>
<path d="M32.5001 47.4013L21.7914 36.7088L17.2089 41.2913L32.5001 56.5987L60.7913 28.2913L56.2088 23.7088L32.5001 47.4013Z" fill="white"/>
</g>
<defs>
<filter id="filter0_d_1_89" x="0" y="0" width="77.9999" height="81.9999" filterUnits="userSpaceOnUse" color-interpolation-filters="sRGB">
<feFlood flood-opacity="0" result="BackgroundImageFix"/>
<feColorMatrix in="SourceAlpha" type="matrix" values="0 0 0 0 0 0 0 0 0 0 0 0 0 0 0 0 0 0 127 0" result="hardAlpha"/>
<feOffset dy="4"/>
<feComposite in2="hardAlpha" operator="out"/>
<feColorMatrix type="matrix" values="0 0 0 0 0.913725 0 0 0 0 0.776471 0 0 0 0 0.188235 0 0 0 1 0"/>
<feBlend mode="normal" in2="BackgroundImageFix" result="effect1_dropShadow_1_89"/>
<feBlend mode="normal" in="SourceGraphic" in2="effect1_dropShadow_1_89" result="shape"/>
</filter>
</defs>
</svg>
