<svg width="67" height="56" viewBox="0 0 67 56" fill="none" xmlns="http://www.w3.org/2000/svg">
<path d="M5.92323 24.5667C5.92323 24.5667 33.2869 13.2502 42.7771 9.26556C46.4149 7.67172 58.7523 2.5712 58.7523 2.5712C58.7523 2.5712 64.4463 0.340162 63.9719 5.75887C63.8134 7.99032 62.5481 15.8002 61.2827 24.2477C59.3848 36.2019 57.3285 49.2712 57.3285 49.2712C57.3285 49.2712 57.0124 52.9372 54.3236 53.5748C51.6344 54.2124 47.2058 51.3433 46.4149 50.7057C45.7824 50.2274 34.5523 43.0551 30.4401 39.5489C29.3327 38.5926 28.0673 36.6798 30.5981 34.4483C36.2922 29.1889 43.0936 22.6539 47.2058 18.51C49.1037 16.5971 51.0019 12.1342 43.0936 17.5533C31.8635 25.3632 20.7915 32.6952 20.7915 32.6952C20.7915 32.6952 18.2611 34.289 13.516 32.8545C8.77088 31.42 3.23485 29.5075 3.23485 29.5075C3.23485 29.5075 -0.5609 27.1164 5.92406 24.5667H5.92323Z" stroke="white" stroke-width="4.0411"/>
</svg>
