<?xml version="1.0" encoding="UTF-8"?><svg id="_Слой_4" xmlns="http://www.w3.org/2000/svg" xmlns:xlink="http://www.w3.org/1999/xlink" viewBox="290 0 575 550"><defs><style>.cls-1{fill:#6b3527;}.cls-1,.cls-2,.cls-3{stroke-width:0px;}.cls-4{fill:#000;}.cls-4,.cls-5,.cls-6,.cls-7,.cls-8,.cls-9,.cls-10,.cls-11,.cls-12,.cls-13,.cls-14,.cls-15,.cls-16,.cls-17,.cls-18,.cls-19,.cls-20,.cls-21,.cls-22,.cls-23,.cls-24{stroke-miterlimit:10;}.cls-4,.cls-5,.cls-6,.cls-7,.cls-8,.cls-10,.cls-12,.cls-14{stroke:#000;}.cls-5,.cls-6,.cls-17{fill:#fff;}.cls-6{font-family:TitanOne, 'Titan One';font-size:45.06px;}.cls-7{fill:#4c3925;}.cls-8{fill:#af6b40;}.cls-9{fill:#ede401;}.cls-9,.cls-11,.cls-13,.cls-15,.cls-16,.cls-17,.cls-19,.cls-20,.cls-23,.cls-24{stroke:#1d1d1b;}.cls-10{fill:#84929d;}.cls-11{fill:#f43900;}.cls-12,.cls-19{fill:none;}.cls-13{fill:#ed837b;}.cls-14{fill:#dc6fc2;}.cls-15{fill:#4ab6e2;}.cls-2{fill:#5c7723;}.cls-16{fill:#8f260c;}.cls-18{fill:url(#_Безымянный_градиент_163);stroke:url(#_Безымянный_градиент_8);}.cls-20{fill:#e9e8ec;}.cls-21{fill:url(#_Безымянный_градиент_183);stroke:url(#_Безымянный_градиент_8-3);}.cls-22{fill:url(#_Безымянный_градиент_187);stroke:url(#_Безымянный_градиент_8-2);}.cls-23{fill:#bace61;}.cls-24{fill:#1d1e1b;}.cls-3{fill:#a6a032;}</style><radialGradient id="_Безымянный_градиент_163" cx="597.5" cy="261.65" fx="597.5" fy="261.65" r="261.15" gradientUnits="userSpaceOnUse"><stop offset="0" stop-color="#d4ab00"/><stop offset=".15" stop-color="#d5a600"/><stop offset=".3" stop-color="#d89a00"/><stop offset=".46" stop-color="#dd8501"/><stop offset=".62" stop-color="#e46702"/><stop offset=".78" stop-color="#ee4104"/><stop offset=".94" stop-color="#fa1306"/><stop offset="1" stop-color="#ff0007"/></radialGradient><radialGradient id="_Безымянный_градиент_8" cx="597.5" cy="261.65" fx="597.5" fy="261.65" r="261.65" gradientUnits="userSpaceOnUse"><stop offset="0" stop-color="#fff"/><stop offset="1" stop-color="#000"/></radialGradient><radialGradient id="_Безымянный_градиент_187" cx="601.18" cy="260.51" fx="601.18" fy="260.51" r="204.34" gradientUnits="userSpaceOnUse"><stop offset=".43" stop-color="#e94e00"/><stop offset=".55" stop-color="#e64900"/><stop offset=".68" stop-color="#df3d02"/><stop offset=".82" stop-color="#d42804"/><stop offset=".96" stop-color="#c40a08"/><stop offset="1" stop-color="#bf000a"/></radialGradient><radialGradient id="_Безымянный_градиент_8-2" cx="601.18" cy="260.51" fx="601.18" fy="260.51" r="204.84" xlink:href="#_Безымянный_градиент_8"/><radialGradient id="_Безымянный_градиент_183" cx="599.48" cy="265.6" fx="599.48" fy="265.6" r="144.14" gradientUnits="userSpaceOnUse"><stop offset=".39" stop-color="#bf4a00"/><stop offset=".53" stop-color="#bc4500"/><stop offset=".67" stop-color="#b53900"/><stop offset=".82" stop-color="#a82402"/><stop offset=".97" stop-color="#970603"/><stop offset="1" stop-color="#940004"/></radialGradient><radialGradient id="_Безымянный_градиент_8-3" cx="599.48" cy="265.6" fx="599.48" fy="265.6" r="144.64" xlink:href="#_Безымянный_градиент_8"/></defs><circle class="cls-18" cx="597.5" cy="261.65" r="261.15"/><circle class="cls-22" cx="601.18" cy="260.51" r="204.34"/><circle class="cls-21" cx="599.48" cy="265.6" r="144.14"/><path class="cls-10" d="M682.44,217.13c.47,2.75.83,5.89.91,9.37.14,5.4-.42,10.13-1.14,13.94-1.04-.4-2.8-.98-5.03-1.14-8.61-.64-15.48,5.54-17.83,7.54-8.57,7.33-30.78,22.35-62.41,43.21-1.88,4.08-2,7.26-1.74,9.43.45,3.85,2.27,6.18,3,12.17.19,1.59.24,2.91.26,3.77,19.06-10.57,38.12-21.15,57.18-31.72-6.48,14.8-14.28,37.31-16.63,65.66-1.95,23.61.51,43.58,3.43,57.95-2.01,7.07-3.86,15.23-5.14,24.35-1.57,11.16-1.94,21.24-1.73,29.84,7.03-1.26,14.06-2.51,21.1-3.77,1.55-12.41,3.09-24.81,4.64-37.22,5.83-.11,11.66-.23,17.49-.34,2.08,8.84,4.17,17.67,6.25,26.51,6.53-3.18,13.06-6.36,19.59-9.54.19-7.2.37-14.4.56-21.59,1.93-5.58,4.47-13.82,6.52-24,1.84-9.19,3.6-21.59,3.43-49.38-.09-14.24-.69-33.01-2.74-55.21,5.79,18.17,11.58,36.35,17.37,54.52-5.03,3.43-10.06,6.86-15.09,10.29.24,6.55.16,13.7-.4,21.35-.3,4.03-.71,7.89-1.2,11.57,11.3-9.53,22.59-19.06,33.89-28.59.85-.72,1.7-1.44,2.56-2.16.94.68,1.88,1.37,2.82,2.05-.02-1.46-.04-2.92-.06-4.38.95.93,1.91,1.85,2.86,2.78-.51-2.42-1.02-4.83-1.54-7.25,1.05.84,2.09,1.67,3.14,2.51-1.2-2.02-2.4-4.03-3.6-6.05-2.59-20.34-7.53-53.22-15.83-80.76-1.73-5.74-5.01-15.88-12.34-17.83-9.01-2.4-20.14,8.65-20.12,8.69.01.02,2.66-1.74,11.66-7.77-2-1.57-4.78-4.22-6.86-8.23-4.74-9.17-2.09-18.34-1.37-20.57h-25.83Z"/><path class="cls-5" d="M651.35,295.02c.88-2.67,2.85-8.45,7.89-13.89,2.49-2.69,5.29-5.72,9.43-6.86,8.97-2.48,19.76,5.12,24.69,13.54,3.09,5.29,3.49,10.25,3.09,23.15-.71,22.87-1.07,34.3-4.86,49.95-4.31,17.81-6.63,26.85-14.63,33.38-6.86,5.59-19.11,10.85-27.89,5.94-6.97-3.9-8.78-12.53-10.52-20.8-1.41-6.71-1.76-13.45,0-29.26,0,0,2.75-24.71,12.8-55.15Z"/><path class="cls-10" d="M717.07,55.16c-13.75.23-27.51.46-41.26.69.15-5.69.22-11.29.23-16.8.02-11.68-.28-16.08-3.43-18.75,0,0-2.32-1.96-6.06-2.17-10.76-.61-30.58,54.99-45.15,100.93-9.64.3-17.36-.19-22.63-.69-8.48-.8-14.75-2.02-16.23.69-1.06,1.94.84,4.96,1.6,6.17,2.5,3.98,6.6,5.19,7.77,5.49-4.57-.96-11.18-2.29-19.2-3.66-27.44-4.69-33.08-3.37-34.98-.23-.9,1.5-.76,3.09-.69,3.89.66,7.23,11.31,13.54,26.06,16.46-5.11.15-10.21.3-15.32.46-.55-.17-3.45-1.03-5.03.46-1.48,1.4-.93,4.06-.69,5.26,1.63,7.89,29.24,20.27,35.66,23.09-1.62-.25-4.02-.44-6.86,0-2.73.43-5.21.82-5.71,2.06-1.24,3.04,9.78,10.2,10.97,10.97,32.72,21.26,85.5,25.83,85.5,25.83,68.35,5.92,113.15-9.51,120.24-9.14.24.01,1.64.11,2.97-.69,1.91-1.13,3.65-4.04,2.51-5.94-.98-1.64-3.99-2.35-6.63-.69,18.15-7.31,32.23-14.93,42.06-20.8,23.86-14.25,23.18-18.48,22.86-19.43-.82-2.46-5.83-3.06-8.92-3.43-6.7-.8-11.95,1.57-14.17,2.74,8.35-6.01,14.96-10.59,19.2-13.49,9.06-6.2,15.44-10.33,16.46-17.14.19-1.25.38-2.67-.46-3.66-2.89-3.44-14.94,1.93-25.15,7.32,3.23-.93,8.56-2.95,13.49-7.54,4.14-3.85,5.92-7.58,7.32-10.52,1.65-3.46,1.44-4.34,1.14-4.8-1.55-2.44-9.57.07-12.34.91-8.51,2.6-21.43,5.97-42.06,10.06,2-1.04,4.98-2.82,8-5.71,1.83-1.76,6.8-6.52,5.71-8.69-1-2-6.73-.97-13.03.23-7.61,1.44-17.85,3.48-30.18,6.17-7.77-25.45-12.89-44.92-16.23-58.52-2.5-10.19-6.04-25.32-18.06-33.15-1.82-1.19-8.14-5.3-12.57-2.97-2.94,1.55-3.84,5.31-4.8,12.12-.93,6.59-1.85,15.62-1.94,26.63Z"/><path class="cls-5" d="M806.69,232.96c1.64-3.59,4.52-8.77,9.6-13.89.8-.8,1.38-1.37,1.95-1.85,2.46-2.09,5.62-3.78,18.28-12.04,7.18-4.68,11.11-7.36,13.72-5.83,1.05.62,1.97,1.95,1.71,2.91-.37,1.39-2.94,1.25-6.35,3.15-1.58.88-2.72,1.85-3.42,2.51,3.01-2.14,7.56-4.81,13.54-6.34,10.59-2.71,23.52-1.29,24.17,2.06.14.71-.3,1.31-.86,2.06-4.02,5.39-12.8,4.91-14.4,4.8,8.32-.85,14.94-.6,19.55-.17,3.13.29,5.91.71,7.54,2.91,1.55,2.1,1.78,5.42.34,7.54-2.09,3.09-7.14,2.9-11.32,2.74-5.58-.21-7.68-1.79-12.9-1.07-2.12.29-3.82.83-4.93,1.24,1.09-.36,10.85-3.43,16.12,1.71.66.64,2.47,2.41,2.06,4.11-.57,2.35-4.96,2.98-13.03,4.29-14.97,2.42-17.91,3.17-19.17,3.63-.19.07-.32.12-.37.14-10.26,3.99-15.71,9.96-15.94,9.69-.16-.18,2.73-2.31,2.23-3.51-.45-1.08-3.36-.89-4.71-.69-1.51.23-2.59.73-3.94,1.37-.92.43-2.4,1.19-4.37,2.57-1.49,1.04-3.43,2.55-5.49,4.63,2.91-4.88,5.24-8.92,7.03-11.92.37-.62,1.69-2.82,2.06-5.91.17-1.4.28-2.36-.17-2.74-.88-.75-4.07.61-13.63,9,.98-.79,2.19-2.04,2.91-3.86.42-1.05.82-2.05.43-3.09-.59-1.58-2.62-2.17-3.94-2.23-2.59-.11-4.14,1.87-4.29,2.06Z"/><path class="cls-10" d="M710.85,398.23c2,2.45,5.17,5.72,9.77,8.4,13.41,7.82,30.79,5.86,42.86-1.37,13.27-7.96,17.8-21.15,21.6-32.23,5.43-15.81,5.09-28.38,5.14-39.78.26-56.61,10.1-99.67,18.86-101.5.63-.13,3.69-.77,4.8.69,1.33,1.73-.89,5.4-1.37,6.17,3.31-2.7,6.18-4.59,8.23-5.83,2.86-1.74,3.97-2.13,4.46-1.71.8.67-.33,3.26-1.03,4.8-1.58,3.51-4.09,8.78-7.89,15.77,1.55-1.38,3.96-3.32,7.2-5.14.41-.23,9.25-5.16,10.63-3.43.86,1.07-1.54,4.19-3.43,6.86-4.66,6.6-7.62,14.26-11.66,21.26-7.95,13.8-5.03,39.52-7.54,76.12-2.82,41.11-9.43,51.46-12.34,55.55-11.31,15.87-27.26,21.97-32.23,23.66-30.93,10.52-57.96-6.31-61.72-8.74.16-.72.39-1.79.69-3.09,1.09-4.86,1.64-7.29,2.23-9.26.53-1.76,1.37-4.26,2.74-7.2Z"/><path class="cls-5" d="M654.92,127.96c3.83-4.03,7.7-6.51,10.89-8.08,21.13-10.4,44.71,3.29,47.82,5.16-.64-.26-1.27-.52-1.91-.79,2.87-.66,7.04-1.44,12.12-1.68,15.56-.75,26.36,4.1,28.85,5.28,4.63,2.18,7.78,3.71,10.44,7.24,4.24,5.62,4.14,12.18,4.04,15.66-.73,25.47-27.22,45.76-29.3,47.32-6.5,4.85-14.32,10.55-25.93,11.96-9.98,1.21-17.61-1.37-24.75-3.87,0,0-28.65-10.05-51.36-45.8-1.79-2.82-4.53-7.54-5.05-13.98-.24-3-.7-8.53,2.69-13.47,4.77-6.95,13.78-7.81,16.67-8.08,2.72-.26,5-.06,6.57.17-.6.99-1.2,1.98-1.8,2.97Z"/><path class="cls-10" d="M652.33,141.15c-.43.59-.12,1.51,0,1.85,2.09,6.08,21.91,11.93,39.91,10.44,7.28-.6,22.43-3.09,39.07-16-2.31,1.16-5.78,2.77-10.1,4.38-10.64,3.94-31.07,11.51-50.68,5.05-7.96-2.62-16.64-7.84-18.19-5.73Z"/><path class="cls-5" d="M664.79,162.87c-1.12-1.6-1.54-3.08-2.36-6.74-.52-2.32-.96-4.49-1.35-6.48,2.42.87,5.61,1.87,9.43,2.67,2.08.43,7.79,1.53,15.35,1.49,3.76-.02,10.91-.11,19.76-2.69,8.57-2.5,14.54-6.11,17.74-8.08,3.37-2.07,6.04-4.07,7.94-5.58-.39,4.01-.79,8.03-1.18,12.04-2.54,1.62-5.09,3.24-7.63,4.86-2.06,2.94-4.12,5.87-6.17,8.81-1.19-2.2-2.38-4.4-3.56-6.6-2.59.69-5.33,1.3-8.22,1.8-13.18,2.27-24.95,1.43-34.27-.25-1.1,2.37-2.21,4.73-3.31,7.1-.58-.47-1.4-1.24-2.16-2.33Z"/><path class="cls-10" d="M731.6,136.92c.49.08.98.17,1.47.25.2,3.5.23,7.28,0,11.3-.47,8.11-1.02,18.56-6.31,29.47-3.44,7.08-6.4,14.04-13.89,18.02,0,0-4.25,2.25-8.84,2.69-11.8,1.14-26.42-12.96-36.46-34.6.7-1.4,1.4-2.81,2.1-4.21.56,1.31,1.39,3.16,2.53,5.3,5.51,10.4,12.15,16.5,14.06,18.19,4.18,3.7,6.56,5.8,10.69,7.07,1.62.5,7.36,2.06,13.22-.08,3.31-1.21,7.98-4.09,13.3-15.15,3.38-7.03,8.22-19.86,8.12-38.24Z"/><path class="cls-14" d="M691.06,187.12c.12-1.14.4-2.74,1.09-4.55.68-1.77,1.76-4.57,4.55-6.65,4.54-3.4,9.97-2.18,10.61-2.02,1.39.34,2.48.86,3.2,1.26-.56.42-1.5,1.25-2.19,2.61-.5.99-.69,1.91-.76,2.53.04-.54.15-1.36.51-2.27,1.35-3.44,4.91-4.82,7.24-5.73,2.08-.81,4.71-1.83,7.24-.67.64.29,1.11.65,1.43.93-.43,1.66-1.2,3.96-2.61,6.48-1.03,1.83-3.07,5-6.65,7.91-1.71,1.39-3.65,2.97-6.74,3.96-3.3,1.06-6.06.85-6.99.76-5.17-.53-8.63-3.36-9.93-4.55Z"/><path class="cls-12" d="M724.32,134.66c1.49-.04,4.07.08,6.99,1.26,2.74,1.11,4.6,2.68,5.64,3.7"/><path class="cls-12" d="M695.78,126.33v.76"/><path class="cls-12" d="M701.42,121.95c.2.42.39.84.59,1.26"/><path class="cls-12" d="M707.23,126.75c.22.34.45.67.67,1.01"/><path class="cls-12" d="M662.86,128.85l.84.34"/><path class="cls-12" d="M657.89,128.94l-.42,1.35"/><path class="cls-12" d="M661.6,124.06c-.34.2-.67.39-1.01.59"/><path class="cls-4" d="M672.99,122.34c-.65.3-1.57.72-2.69,1.18-2.42,1-2.95,1.05-3.42,1.01-1.02-.08-2.51-.63-2.92-1.74-.56-1.53,1.19-3.34,1.91-4.1,2.72-2.83,6.21-3.55,9.37-4.15,3.65-.7,6.33-.47,11.67,0,.95.08,3.26.31,5.73,1.63,2.14,1.15,2.6,2.16,2.75,2.58.34.93.41,2.35-.34,3.31-1.57,2.02-5.83.82-7.35.39-2.25-.63-3.93-1.68-5-2.47-.15.47-.39,1.16-.73,1.96-.64,1.51-1.15,2.7-2.08,3.76-.73.83-2.21,2.51-4.21,2.3-1.24-.13-2.72-.98-3.2-2.53-.49-1.59.37-2.94.51-3.14Z"/><path class="cls-12" d="M727.93,65.68c-1.58-1.42-3.92-3.15-7.09-4.34-7.99-3.02-15.29-.42-17.49.46"/><path class="cls-12" d="M672.16,63.16c-1.76-.92-4.26-1.89-7.32-2.06-9.55-.52-16.03,7.25-16.92,8.34"/><path class="cls-14" d="M745.65,53.68c.71-1.54.02-3.26-1.14-5.71-4.94-10.45-10.19-21.55-14.52-20.57-4.23.95-4.9,12.81-5.03,15.09-.33,5.72.73,10.38,1.6,13.26,2.44.44,16.79,2.9,19.09-2.06Z"/><path class="cls-14" d="M667.13,56.65c.48-3.05,1.11-7.64,1.49-13.26.55-8.21,1.09-16.23-.91-16.8-1.98-.57-5.52,6.43-8.23,11.77-4.47,8.84-7.22,14.27-4.91,17.26,2.71,3.51,10.72,1.52,12.57,1.03Z"/><path class="cls-5" d="M714.22,119.29c10.75.68,17.76-7.8,18.29-8.46,5.91-7.38,7.72-19.47,1.14-27.43-7.16-8.67-19.48-6.68-21.03-6.4-8.19,1.46-18.28,7.7-19.66,18.06-1.61,12.1,9.5,23.49,21.26,24.23Z"/><path class="cls-5" d="M679.47,106.94c-1.35,6.38-5.62,10.13-6.63,10.97-6.63,5.54-18.03,7.47-26.52.91-8.23-6.36-9.72-17.62-5.71-26.06,4.12-8.7,14.01-14.3,23.55-12.12,11.97,2.75,17.41,16.4,15.32,26.29Z"/><path class="cls-4" d="M713.89,109.5c2.03,2.16,2.34,5.86.69,7.54-2.28,2.31-8.41.95-9.6-2.74-.7-2.17.25-5.28,2.74-6.4,2.34-1.05,4.85.19,6.17,1.6Z"/><path class="cls-4" d="M647.2,114.62c.31-1.75,1.72-3.19,3.2-3.89.41-.19,1.81-.85,3.43-.46,2.56.62,4.64,3.64,4.11,6.63-.38,2.18-2.13,4.24-4.34,4.57-3.53.53-6.99-3.53-6.4-6.86Z"/><path class="cls-1" d="M729.99,149.98c-2.5,1.45-5,2.91-7.5,4.36-2.06,2.94-4.12,5.87-6.17,8.81-1.23-2.26-2.47-4.52-3.7-6.77-2.8.88-5.83,1.67-9.09,2.29-13.03,2.48-24.51,1.32-32.98-.46-.29.54-.58,1.09-.88,1.63,1.29,2.82,2.87,5.83,4.82,8.94,5.13,8.16,11.01,14.1,15.94,18.23.27-1.55.89-3.95,2.46-6.46,1.14-1.84,3.28-5.27,7.54-6.57,4.49-1.38,8.41.5,9.43,1.03,1.32-.91,2.56-1.58,3.6-2.06,2.55-1.18,5.02-2.32,7.72-1.6,1.24.33,2.18.96,2.86,1.54,1.08-1.95,2.15-4.22,3.09-6.8,2.26-6.25,2.83-11.92,2.86-16.12Z"/><path class="cls-17" d="M485.96,400.86c.58,5.54,1.16,11.07,1.74,16.61,46.92-5.16,93.84-10.33,140.77-15.49-.1-7.16-.19-14.33-.29-21.49-47.41,6.79-94.81,13.58-142.22,20.37Z"/><path class="cls-17" d="M564.67,395.3c4.68,2.42,9.36,4.84,14.04,7.26,4.91-4.68,9.81-9.36,14.72-14.04-3-.82-10.76-2.49-19.36.87-4.3,1.68-7.41,4.07-9.39,5.91Z"/><path class="cls-17" d="M531.85,399.07c4.16,2.26,8.33,4.52,12.49,6.78,4.58-4,9.16-8,13.75-12-1.78-.73-11.22-4.42-20.14.29-2.75,1.45-4.73,3.33-6.1,4.94Z"/><path class="cls-9" d="M429.03,225.39c2.13-1.31,3.98-1.97,5.23-2.32,2.81-.8,4.45-.6,11.33-.87,3.29-.13,4.93-.2,5.52-.29,4.2-.68,5.08-1.99,10.75-4.07,3.95-1.45,6.02-2.21,9-2.32,4.28-.17,4.69,1.21,8.42.87,2.71-.25,2.91-1.01,9.29-3.49,4.73-1.83,7.15-2.75,9.87-2.9,2.89-.16,2.83.5,7.84.87,3.31.24,6.52.48,10.17-.29,3.87-.82,3.43-1.75,8.71-3.49,2.97-.98,6.67-2.16,11.33-2.03,2.34.06,2.04.38,7.26.87,4.27.4,6.4.61,8.13.29,3.82-.7,4-2.29,8.13-3.49,1.46-.42,3.99-.48,9-.58,7.91-.16,8.88.1,11.62-.58,2.98-.74,2.76-1.27,6.39-2.32,4.79-1.39,8.31-2.4,10.75-.87,2.84,1.78,2.99,6.23,3.19,11.91.28,7.99-1.71,9.07-.29,13.36,1.12,3.4,2.54,3.23,6.68,9.87,1.38,2.21,3.08,4.94,4.36,8.13,2.88,7.19.77,9.65,2.61,17.14,1.82,7.4,4.16,6.13,6.68,14.52,1.11,3.69,2.98,9.93,1.74,17.43-1.06,6.43-3.4,7.65-2.61,12.2.74,4.27,2.98,4.28,5.52,10.46.42,1.02,2.4,5.97,2.61,12.49.21,6.17-1.4,6.61-.58,11.91.5,3.21,1.72,7.08,2.32,9,1.26,3.99,1.62,4.17,1.74,5.81.27,3.62-1.34,4.99-2.32,9.29-.61,2.68-.51,4.98-.29,9.58.4,8.63,2.06,10.06.58,12.78-2.22,4.06-8.09,4.79-9.29,4.94-4.65.58-5.21-1.52-10.17-1.74-7.13-.33-8.21,3.91-18.01,4.65-4.41.33-7.84,0-7.84,0-3.97-.39-4.59-1.05-7.26-.87-1.23.08-2.14.29-7.84,2.32-6.51,2.32-6.01,2.3-7.26,2.61-3.29.84-5.82.76-10.75.58-8.78-.32-7.94-1.41-11.33-.87-5.13.82-5.65,3.1-12.2,4.07-3.1.46-5.62.34-6.39.29-3.22-.19-3.72-.74-6.97-1.16-1.65-.21-5.82-.72-10.46.29-3.03.66-3.54,1.39-6.97,2.61-2.63.94-6.5,2.01-11.62,2.32-3.56-3.49-4.36-6.41-4.43-8.42-.14-3.93,2.42-5.74,1.38-9.73-.33-1.25-1.09-2.55-2.61-5.16-1.55-2.65-2.22-3.3-2.98-4.57-.97-1.63-1.42-3.19-2.03-11.62-.61-8.36-.31-8.75-1.09-10.75-1.49-3.82-2.85-3.01-4.94-7.55-.76-1.65-2.76-6.14-1.96-11.62.35-2.4.83-2.22,1.02-3.99.45-4.41-2.42-6.53-6.39-13.51-2.76-4.84-5.36-9.53-5.45-15.61-.03-2.38.36-2.12.29-4.72-.04-1.62-.34-7.2-3.78-13.43-1.92-3.48-2.66-3.24-5.16-7.84-1.68-3.08-2.41-5.15-2.69-7.41-.25-2.03.01-3.04.15-5.01.11-1.69.54-8.09-2.18-13.87-1.19-2.54-2.73-4.3-5.81-7.84-3.08-3.55-4.06-3.88-5.37-6.03-1.21-1.97-2.52-5.17-2.32-10.24Z"/><path class="cls-19" d="M501.26,299.07c1.28,1.13,3.21,2.71,5.71,4.36,11.27,7.39,22.58,8.28,30.5,8.81,21.08,1.41,39.8-4.53,48.89-7.94-2.47-.27-5.84-.93-9.49-2.61-1.91-.88-3.53-1.87-4.84-2.81"/><path class="cls-16" d="M493.22,299.94c.75.3,2.49.88,4.65.48,1.42-.26,2.48-.84,3.1-1.26,2.48,2.18,6.22,5.08,11.23,7.65,9.97,5.12,18.86,5.81,26.04,6.29,7.14.48,18.36.39,31.75-3.39.86,4.22,1.76,10.25,1.74,17.52-.02,10.46-.03,19-5.71,26.82-4.62,6.36-10.76,9.17-12.78,10.07-2.57,1.14-8.33,3.61-15.49,2.71-8.14-1.02-13.46-5.83-17.81-9.87-3.41-3.17-8.83-8.99-15.49-23.24-3.68-7.88-8.17-19.26-11.23-33.79Z"/><path class="cls-13" d="M514.71,351.54c.31-.97.9-2.45,2.13-3.87,2.7-3.14,6.45-3.7,8.23-3.97,1.2-.18,5.14-.63,9.39,1.36,6.74,3.15,8.85,9.88,9.2,11.04-.41-1.35-1.17-3.26-2.61-5.23-2.15-2.93-4.73-4.48-6.2-5.23,1.17-.94,4.56-3.39,9.49-3.58,5.67-.22,9.57,2.7,10.84,3.68,5.84,4.51,6.8,11.16,6.97,12.59-1.24,1.4-3.18,3.31-5.91,5.03-1.79,1.14-9.39,5.66-19.36,4.07-8.11-1.29-13.2-5.89-15.78-8.23-3.07-2.78-5.11-5.6-6.39-7.65Z"/><path class="cls-19" d="M522.17,369.45c1.16,1.75,3.12,4.26,6.2,6.49,1.54,1.11,8.12,5.59,17.14,4.65,11.14-1.17,17.15-9.68,18.01-10.94"/><path class="cls-20" d="M531.85,249.3c.36-1.75,1.12-4.37,2.81-7.16,2.67-4.41,6.11-6.7,7.16-7.36,5.93-3.72,11.95-3.35,14.04-3.19,8.08.61,13.39,5.06,15.49,6.87,1.12.97,5.42,4.83,8.13,11.42,3.53,8.58,2.18,16.41,1.45,20.33-.47,2.54-.75,4.04-1.65,6-4.46,9.77-15.77,12.38-16.75,12.59-1.05.23-10.91,2.19-19.56-3.87-2.28-1.6-3.85-3.32-4.84-4.55-2.1-10.36-4.2-20.72-6.29-31.08Z"/><path class="cls-15" d="M570.44,239.03c-.44-.27-2.84-1.66-5.66-.83-3,.89-4.23,3.65-4.53,4.43-1.78,4.6,1.8,9.46,3.2,11.35,1.76,2.38,5.14,6.96,10.16,6.61,3.95-.28,6.52-3.45,7.17-4.3-.54-2.4-1.6-5.89-3.88-9.63-2.17-3.58-4.64-6.07-6.46-7.64Z"/><path class="cls-24" d="M572.74,241.36c-.66-.5-2.21-1.52-3.75-1.1-2.53.69-3.51,4.85-2.81,7.79.8,3.33,4.16,6.79,7.91,6.19,3.14-.51,4.75-3.58,4.96-3.99-.41-1.27-1.14-3.06-2.48-4.93-1.33-1.87-2.77-3.15-3.83-3.96Z"/><path class="cls-19" d="M490.7,237.98c1.61,2.68,3.23,5.36,4.84,8.04"/><path class="cls-19" d="M500.87,232.17c.94,2.71,1.87,5.42,2.81,8.13"/><path class="cls-19" d="M514.71,233.33l-1.65,6.2"/><path class="cls-19" d="M535.34,230.52c1.42,1.87,2.84,3.74,4.26,5.62"/><path class="cls-19" d="M547.92,223.94c.52,2.39,1.03,4.78,1.55,7.16"/><path class="cls-19" d="M560.31,224.33c-.48,2.29-.97,4.58-1.45,6.87"/><path class="cls-19" d="M432.33,350.57c1.84,1.65,3.68,3.29,5.52,4.94,5.65-3.36,11.29-6.71,16.94-10.07-1.29-.97-2.58-1.94-3.87-2.9-6.2,2.68-12.39,5.36-18.59,8.04Z"/><path class="cls-23" d="M429.33,224.23c-1.07,3.5-2.1,6.36-2.9,8.42-1.73,4.46-2.45,5.53-3.19,6.39-1.66,1.91-2.83,2.11-5.52,4.07-3.39,2.47-5.03,3.78-6.1,5.81-2.02,3.84.69,5.35-1.16,9.58-1.39,3.18-4.37,5.67-6.97,7.84-2.11,1.77-2.64,1.81-3.19,2.9-1.55,3.05.12,7.46,2.32,10.17,1.72,2.12,2.5,1.64,6.97,5.52,2.21,1.92,3.31,2.87,4.07,4.07,1.77,2.79,1.91,5.68,2.03,9.29.16,4.65-.67,4.53-.29,7.55.18,1.41.76,5.97,4.07,9.29,3.05,3.07,5.52,2.17,7.26,5.23.78,1.37.91,2.85,1.16,5.81.34,3.94-.3,4.42,0,7.26.37,3.48,1.69,6.06,2.9,8.42,1.79,3.49,2.63,3.61,4.07,6.97.48,1.14,1.32,3.13,1.74,5.81.54,3.43-.19,4.22,0,8.13.07,1.37.53,3.63,1.45,8.13,1.28,6.22,1.86,7.68,2.32,8.71.84,1.85,2.04,3.88,2.32,4.36,1.99,3.37,2.93,4.15,2.9,5.81-.02,1.64-.95,2.09-1.74,4.07-.64,1.59-1.12,4.01-.29,7.55,1.54-.54,3.85-1.06,5.81,0,1.98,1.07,1.82,2.79,3.78,3.78,1.56.78,2.64.18,7.26-.58,1.58-.26,4.4-.72,7.55-.87,5.3-.25,5.3.69,8.42,0,2.18-.48,3.4-1.21,5.52-.87,1.54.24,2.73.92,3.49,1.45-2.34-3.11-3.36-6-3.78-8.42-.9-5.33,1.37-7.11-.29-11.33-1.15-2.93-2.62-3.01-4.65-7.55-.56-1.25-1.3-2.94-1.74-5.23-.83-4.28.39-5.5,0-10.46-.15-1.85-.33-4.21-1.45-6.97-1.51-3.71-2.96-3.87-4.94-8.13-.81-1.75-1.78-3.84-2.03-6.68-.34-3.82.99-4.75.87-8.71-.1-3.4-1.18-5.96-1.74-7.26-2.01-4.64-4.02-4.65-6.68-9.58-.65-1.21-2.26-4.25-2.9-8.42-.62-4.01.26-5.04-.29-10.75-.27-2.79-.43-4.46-1.16-6.68-1.22-3.7-3.2-6.47-5.23-9.29-2.3-3.21-2.99-3.49-3.78-5.52-.73-1.9-.79-3.52-.87-6.68-.26-10.12-.17-9.74-.29-10.75-.39-3.21-.87-7.16-3.49-10.75-2.58-3.54-4.03-2.31-7.26-6.39-3.63-4.58-4.25-9.22-4.36-10.17-.21-1.78-.12-3.29,0-4.36Z"/><path class="cls-2" d="M421.41,265.18c-1.51,2.13-1.82,4.11-2.32,7.33-.47,2.99-.89,5.74.07,9.08.6,2.06,1.52,5.27,4.65,7.19,2.95,1.82,6.72,1.78,9.58.36,3.52-1.74,4.73-5.09,5.74-7.84.74-2.03,2.01-6.62.36-11.84-.64-2.02-1.65-5.22-4.79-7.26-.7-.46-3.12-1.98-6.32-1.6-4.07.49-6.34,3.68-6.97,4.57Z"/><path class="cls-2" d="M434.36,310.01c-3.04,2.16-3.37,7.18-.58,9.87,2.29,2.21,6.28,2.48,8.71.19,2.72-2.56,2.25-7.15-.39-9.49-2.08-1.84-5.43-2.22-7.75-.58Z"/><path class="cls-2" d="M448.88,329.95c-4,1.67-4.81,6.71-5.03,8.13-.21,1.35-1.09,6.82,2.52,9.68,3.37,2.68,8.99,1.76,12.2-1.55,2.85-2.94,3.59-7.55,1.74-11.23-2.13-4.24-7.43-6.7-11.42-5.03Z"/><path class="cls-3" d="M453.92,243.01c.19,2.9,2.45,4.85,4.45,5.62.41.16,3.54,1.3,5.62-.39,2.44-1.98,2-6.74-.39-9.29-.15-.16-2.98-3.1-6.2-1.94-2.51.91-3.63,3.73-3.49,6Z"/><path class="cls-3" d="M485.09,349.89c-1.86,3.23-.64,6.83,0,8.71,1.69,4.96,6.83,12.03,12.2,10.84,4.77-1.05,7.58-8.14,6.58-13.75-.66-3.72-3.35-8.83-8.52-9.87-3.64-.74-8.25.58-10.26,4.07Z"/><path class="cls-3" d="M501.55,379.71c-.76,2.22.56,4.21,1.74,6,.68,1.03,3.31,4.99,5.81,4.45,2.45-.53,3.93-5.16,2.9-8.71-.13-.44-1.52-5.02-5.23-5.23-2.24-.12-4.51,1.4-5.23,3.49Z"/><path class="cls-2" d="M454.3,375.65c-.07.23-1.36,4.84,1.36,6.78,2.29,1.63,5.47-.01,5.81-.19,2.52-1.35,4.84-4.71,3.68-7.94-.76-2.12-2.96-3.97-5.42-3.87-3.84.14-5.32,4.87-5.42,5.23Z"/><path class="cls-3" d="M595.46,356.28c-1.61,4.4,1.66,8.6,3.1,10.46,3.19,4.1,9.88,8.78,13.94,6.39,3.9-2.3,3.37-9.93,1.55-14.52-.77-1.95-2.72-6.85-7.55-7.94-4.33-.97-9.51,1.46-11.04,5.62Z"/><path class="cls-3" d="M604.17,331.11c-.03.25-.39,3.36,1.94,5.42,2.13,1.89,5.67,2.15,7.94.19,2.73-2.36,2.32-6.81,0-9.1-1.49-1.47-4.05-2.34-6.39-1.36-2.95,1.24-3.44,4.52-3.49,4.84Z"/><path class="cls-3" d="M579.38,224.23c-.75,2.61-.1,4.83.19,5.81,1.44,4.76,6.72,10.82,11.23,9.49,3.48-1.03,5.04-6.04,5.03-9.49-.01-4.22-2.39-9.23-6.78-10.65-2.08-.67-5.34-.77-7.55,1.16-1.44,1.25-1.91,2.91-2.13,3.68Z"/><path class="cls-3" d="M596.23,249.79c-1.88,2.41-.84,5.44-.58,6.2.67,1.95,2.53,4.83,4.65,4.65,2.38-.2,3.72-4.18,3.87-6.78.06-1.07.28-4.82-2.13-6-1.94-.95-4.52.28-5.81,1.94Z"/><path class="cls-19" d="M498.93,286.29c.23.29.45.58.68.87"/><path class="cls-17" d="M534.99,312.23c.58,4.36,1.16,8.71,1.74,13.07,5.58-.61,11.17-1.23,16.75-1.84-.19-3.74-.39-7.49-.58-11.23h-17.91Z"/><path class="cls-17" d="M556.92,312.04c.48,3.71.97,7.42,1.45,11.13l16.65-1.55c-.65-4.13-1.29-8.26-1.94-12.39-5.39.94-10.78,1.87-16.17,2.81Z"/><path class="cls-9" d="M541.87,288.42c2.74-.1,6.77-.46,11.47-1.74,5.42-1.49,9.55-3.61,12.92-5.37,7.01-3.66,7.72-5.18,12.92-6.83,5.39-1.71,8.22-1.22,9.58-.87,1.39.35,4.96,1.26,6.83,4.5,2.38,4.13.18,8.88-.15,9.58-.46.99-2.62,5.29-10.89,8.28-14.97,5.41-34.98,1.13-41.53-.44"/><path class="cls-20" d="M488.48,278.25c-.86-2.57-1.9-6.61-1.84-11.62.05-4.06.13-10.97,5.03-17.33,5.44-7.05,13.18-8.72,15.3-9.1,7.9-1.42,13.99,1.41,15.88,2.32,7.64,3.68,11.16,9.89,12.59,12.49,1.31,2.39,5.96,11.18,3.19,22.07-.62,2.43-2.56,9.62-9.49,15.01-1.24.96-8.89,6.71-19.07,5.32-9.86-1.35-18.25-8.86-21.59-19.17Z"/><path class="cls-15" d="M528.32,247.12c-.98-.36-3.2-1.02-5.6-.21-4.78,1.62-5.75,7.57-5.83,8.11-1.06,7.2,5.9,12.52,7.29,13.52,1.22.88,7.83,5.4,12.24,2.64,1.34-.84,2.09-2.12,2.53-3.14-.21-2.56-.87-6.68-3.1-11.2-2.39-4.84-5.52-8-7.52-9.73Z"/><path class="cls-24" d="M529.62,249.55c-2.56-.65-5.14-.03-6.68,1.67-2.2,2.42-1.2,5.86-.8,7.23.19.66,1.84,6.3,6.28,6.7,3.26.3,6.75-2.33,7.77-6.46-.41-1.19-1.03-2.66-2.03-4.21-1.52-2.37-3.27-3.95-4.55-4.93Z"/><path class="cls-9" d="M480.73,282.51c1.63-1.1,4.14-2.53,7.45-3.49,3.29-.95,7.54-2.17,12-.29.94.4,6.49,2.72,7.45,8.23.83,4.7-2.29,8.32-3.1,9.2-3.18,3.42-7.34,3.75-8.91,3.87-6.78.54-11.63-3.69-12.68-4.65"/><path class="cls-19" d="M492.64,289.77c.23.52.45,1.03.68,1.55"/><path class="cls-19" d="M490.03,284.83c.29.32.58.65.87.97"/><path class="cls-9" d="M497.3,285l.74.82"/><path class="cls-17" d="M426.37,373.39c2.24,2.2,3.51,3.44,5.62,4.26,3.95,1.53,7.75.34,9.1-.1,4.4-1.44,7.32-5.33,12.97-13.07,4.26-5.83,5.63-8.84,6.1-12.3.25-1.85.61-4.82-1.16-6.87-1.45-1.68-3.81-2.17-6.68-2.13-12.13.16-34.63,9.81-33.5,18.2.15,1.09.74,2.21,1.94,4.45,2.06,3.87,4.43,6.39,5.62,7.55Z"/><path class="cls-9" d="M430.56,359.36c.85.5,2,1.31,3.12,2.54,1.27,1.4,2.01,2.8,2.42,3.78-6.8,3.44-12.42,6.52-16.65,8.91-3.98,2.25-6.67,3.86-6.49,5.62.19,1.84,3.44,2.77,7.16,3.97,15.02,4.84,10.82,5.36,25.07,9.68,0,0,5.98,1.81,12.97,5.62,1.81.99,3,1.73,4.04,3.1,3.11,4.07,1.87,9.57,1.52,11.11-1.2,5.31-4.61,8.46-6.03,9.73-1.4,1.25-4.57,4.02-9.51,4.79-1.77.28-7.87,1.22-11.98-2.83-.43-.43-4.39-4.44-2.98-8.93,1.02-3.25,4.2-4.63,5.23-5.08,1.28-.56,3.33-1.45,4.65-.44,1.21.93,1.21,3.01.65,4.36-.76,1.84-2.84,3.03-5.23,2.98.41-.02,1-.09,1.67-.36.8-.32,1.36-.78,1.67-1.09.12.95.19,2.05.15,3.27-.02.62-.08,1.2-.15,1.74l.07-4.72c.44-.14,1.66-.58,2.25-1.74.9-1.75-.12-4.16-1.38-4.86-1.93-1.09-5.77,1.06-9.44,5.52-.31-.69-.7-1.76-.8-3.12-.08-1.05-.24-3.16,1.09-4.94,1.12-1.49,2.68-1.95,3.99-2.32,1.01-.29,4.09-1.18,6.32.51.52.4.87.84,1.09,1.16-.26.24-.97.94-1.23,2.11-.27,1.19.08,2.15.22,2.47-.12-.46-.28-1.41,0-2.54.25-.99.72-1.67,1.02-2.03-.62-.64-1.52-1.38-2.76-1.82-4.2-1.49-8.2,1.85-8.5,2.11.03-.51.1-1.21.29-2.03.22-.92.45-1.92,1.16-2.9.81-1.12,1.87-1.72,2.61-2.03,1.88.2,4.28.67,6.9,1.74,1.27.52,2.38,1.1,3.34,1.67-.65.3-1.63.86-2.47,1.89-1.41,1.73-1.52,3.68-1.6,5.16-.15,2.72.61,4.94,1.23,6.32-.36-.66-.83-1.67-1.09-2.98-.51-2.55.09-4.52.73-6.61.57-1.85.9-2.87,1.82-3.27,1.3-.56,2.87.51,2.9.44.04-.09-1.99-1.46-6.68-3.41-5.76-2.39-8.33-2.67-14.09-4.43-9.04-2.76-6.71-3.31-15.83-6.17-2.88-.91-7.46-2.21-10.67-5.88-.87-.99-1.63-2.14-1.67-3.56-.06-2.03,1.36-3.76,3.12-5.3,6.19-5.4,25.3-16.06,26.72-16.85Z"/><path class="cls-19" d="M424.19,357.15c1.79-.16,3.17.14,4.16.48,4.62,1.62,7.74,6.89,8.33,13.36"/><path class="cls-5" d="M463.65,404.24c.48,1.1,1.02,2.69,1.13,4.65.25,4.2-1.59,7.34-2.39,8.54,8.44.01,16.87.03,25.31.04-.36-4.24-.72-8.48-1.08-12.72-.89-.53-2.31-1.23-4.14-1.51-1.79-.27-2.7.05-5.78.38-1.03.11-2.86.2-6.53.38-1.62.08-3.85.18-6.53.25Z"/><path class="cls-8" d="M488.22,417.39c.33,4.74.67,9.49,1,14.23,8.04,4.35,16.07,8.71,24.11,13.06,38.84-3.68,77.69-7.37,116.53-11.05-.28-10.55-.56-21.1-.84-31.64-46.94,5.13-93.87,10.27-140.81,15.4Z"/><path class="cls-7" d="M470.47,417.39h17.75c.33,4.74.67,9.49,1,14.23-2.57-1.83-5.16-3.73-7.79-5.69-3.81-2.86-7.46-5.71-10.97-8.54Z"/><path class="cls-8" d="M612.2,435.58l.54,7.26c-2.92,2.19-5.65,3.35-7.53,3.99-1.42.48-7.94,2.57-15.97.49-3.22-.84-5.71-2.09-7.35-3.06-.21-2.09-.43-4.19-.64-6.28,10.32-.8,20.63-1.6,30.95-2.39Z"/><path class="cls-9" d="M599.9,448.19c-.75.13-1.59.22-2.51.25-1.94.06-3.61-.18-4.93-.49l.15,14.94c0,.27.05.69.32,1.06.65.89,2.14.83,3.7.75.63-.03,1.56-.11,2.67-.37.2-5.38.39-10.76.59-16.14Z"/><path class="cls-11" d="M554.31,398.01c1.16,2.74,2.32,5.49,3.49,8.23l6-.1c1.06-3.32,2.13-6.65,3.19-9.97-1.21-.3-2.8-.55-4.65-.48-3.71.13-6.52,1.45-8.04,2.32Z"/><path class="cls-11" d="M558.38,406.33c1.81-.06,3.61-.13,5.42-.19,2.16,4.07,4.32,8.13,6.49,12.2-2.29,4.07-4.58,8.13-6.87,12.2-3.49-3.23-6.97-6.45-10.46-9.68,1.81-4.84,3.61-9.68,5.42-14.52Z"/><path class="cls-8" d="M552.08,441.49c.18,2.42.36,4.84.54,7.26-1.55,1.27-4.08,3-7.53,3.99-5.56,1.59-10.4.36-14.64-.72-3.48-.88-6.41-2.1-8.73-3.26-.2-1.62-.4-3.25-.6-4.87,10.32-.8,20.63-1.6,30.95-2.39Z"/><text/><text class="cls-6" transform="translate(496.08 491.31) rotate(16.01)"><tspan x="0" y="0">$</tspan></text><text class="cls-6" transform="translate(526.89 500.03) rotate(10.02)"><tspan x="0" y="0">S</tspan></text><text class="cls-6" transform="translate(557.98 505.43) rotate(3.99)"><tspan x="0" y="0">p</tspan></text><text class="cls-6" transform="translate(589.83 507.56) rotate(-2.1)"><tspan x="0" y="0">u</tspan></text><text class="cls-6" transform="translate(622.5 506.24) rotate(-8.31)"><tspan x="0" y="0">n</tspan></text><text class="cls-6" transform="translate(654.59 501.42) rotate(-14.39)"><tspan x="0" y="0">g</tspan></text><text class="cls-6" transform="translate(685.26 493.42) rotate(-20.18)"><tspan x="0" y="0">e</tspan></text></svg>